<svg width="358" height="239" viewBox="0 0 358 239" fill="none" xmlns="http://www.w3.org/2000/svg">
<g clip-path="url(#clip0_3756_5878)">
<path d="M84.7823 136.216V102.784C84.7823 100.841 83.7457 99.0457 82.063 98.0742L53.1106 81.3585C51.4279 80.387 49.3547 80.387 47.6719 81.3585L18.7193 98.0743C17.0366 99.0458 16 100.841 16 102.784V136.216C16 138.159 17.0366 139.954 18.7193 140.926L47.6717 157.641C49.3544 158.613 51.4276 158.613 53.1104 157.641L82.0628 140.926C83.7455 139.954 84.7823 138.159 84.7823 136.216Z" fill="#EB4826"/>
<path d="M246.355 152.238V86.7623C246.355 82.9569 244.325 79.4405 241.029 77.5377L184.326 44.7999C181.03 42.8971 176.97 42.8971 173.674 44.7999L116.971 77.5377C113.675 79.4405 111.645 82.9569 111.645 86.7623V152.238C111.645 156.043 113.675 159.56 116.971 161.462L173.674 194.2C176.97 196.103 181.03 196.103 184.326 194.2L241.029 161.462C244.325 159.56 246.355 156.043 246.355 152.238Z" fill="#408A13"/>
<path d="M342 136.216V102.784C342 100.841 340.963 99.0457 339.281 98.0742L310.328 81.3585C308.646 80.387 306.573 80.387 304.89 81.3585L275.937 98.0742C274.255 99.0457 273.218 100.841 273.218 102.784V136.216C273.218 138.159 274.255 139.954 275.937 140.926L304.89 157.641C306.572 158.613 308.646 158.613 310.328 157.641L339.281 140.926C340.963 139.954 342 138.159 342 136.216Z" fill="#F2C91D"/>
<path d="M225.918 112.784L187.834 112.781C185.629 105.468 180.328 99.4289 173.228 96.382C165.258 92.9616 156.061 93.7246 148.7 98.5941C142.156 102.923 137.691 110.268 137.184 118.378C137.176 118.507 137.151 118.664 137.113 118.778V121.59C137.163 121.665 137.166 121.797 137.177 121.966C137.599 128.341 140.389 134.313 144.952 138.743C151.46 145.103 160.849 147.544 169.632 145.229C178.358 142.929 185.261 136.188 187.832 127.582L193.85 127.583V141.806H204.879V127.583L209.878 127.584V136.463H220.907V127.584L225.918 127.585L225.918 112.784ZM163.89 131.249C157.813 131.73 152.475 127.205 151.953 121.128C151.431 115.051 155.95 109.619 162.127 109.122C168.283 108.626 173.597 113.242 174.079 119.294C174.566 125.41 170.001 130.766 163.89 131.249Z" fill="#F5F5F5"/>
</g>
<defs>
<clipPath id="clip0_3756_5878">
<rect width="326" height="152.254" fill="white" transform="translate(16 43.3728)"/>
</clipPath>
</defs>
</svg>
