<svg width="358" height="263" viewBox="0 0 358 263" fill="none" xmlns="http://www.w3.org/2000/svg">
<path d="M98.7049 95.0985V58.6974C98.7049 56.5818 97.5775 54.6269 95.7473 53.5691L64.2583 35.3685C62.4281 34.3107 60.1733 34.3107 58.3431 35.3685L26.8541 53.5691C25.0239 54.6269 23.8965 56.5818 23.8965 58.6974V95.0985C23.8965 97.2141 25.0239 99.169 26.8541 100.227L58.3431 118.427C60.1733 119.485 62.4281 119.485 64.2583 118.427L95.7473 100.227C97.5775 99.169 98.7049 97.2141 98.7049 95.0985Z" fill="#4866F7"/>
<path d="M75.835 82.5005L85.1675 87.8943C85.6457 88.1706 86.2433 87.8251 86.2433 87.2724V62.17C86.2433 61.9135 86.1066 61.6765 85.8847 61.5483L64.1695 48.9967C63.6914 48.7203 63.0938 49.0658 63.0938 49.6185V60.9256C63.0938 61.1821 63.2304 61.4192 63.4524 61.5474L75.1178 68.2903C75.3397 68.4186 75.4764 68.6556 75.4764 68.9121V81.8786C75.4764 82.1351 75.6132 82.3722 75.835 82.5005Z" fill="white"/>
<path d="M48.1097 85.8706L39.2258 91.0051C38.7477 91.2815 38.7476 91.9724 39.2258 92.2487L60.941 104.8C61.1629 104.929 61.4363 104.929 61.6582 104.8L83.3734 92.2487C83.8515 91.9724 83.8515 91.2815 83.3734 91.0051L74.4897 85.8706C74.2678 85.7423 73.9944 85.7423 73.7725 85.8706L61.6581 92.8723C61.4362 93.0006 61.1629 93.0006 60.9409 92.8723L48.8268 85.8706C48.605 85.7423 48.3316 85.7423 48.1097 85.8706Z" fill="white"/>
<path d="M59.505 60.9257V49.6185C59.505 49.0658 58.9074 48.7203 58.4292 48.9967L36.7141 61.5483C36.4921 61.6766 36.3555 61.9135 36.3555 62.17V87.2725C36.3555 87.8252 36.9531 88.1706 37.4313 87.8943L46.7642 82.5005C46.9862 82.3722 47.1229 82.1352 47.1229 81.8787V68.9122C47.1229 68.6557 47.2596 68.4186 47.4815 68.2904L59.1465 61.5475C59.3684 61.4192 59.505 61.1821 59.505 60.9257Z" fill="white"/>
<path d="M186.791 195.364V165.439C186.791 163.7 185.864 162.093 184.359 161.223L158.472 146.261C156.968 145.391 155.114 145.391 153.61 146.261L127.722 161.223C126.218 162.093 125.291 163.7 125.291 165.439V195.364C125.291 197.104 126.218 198.711 127.722 199.58L153.61 214.543C155.114 215.413 156.968 215.413 158.472 214.543L184.359 199.58C185.864 198.711 186.791 197.104 186.791 195.364Z" fill="#4866F7"/>
<path d="M167.99 185.008L175.662 189.442C176.056 189.67 176.547 189.386 176.547 188.931V168.295C176.547 168.084 176.434 167.889 176.252 167.783L158.4 157.465C158.007 157.238 157.516 157.522 157.516 157.976V167.271C157.516 167.482 157.628 167.677 157.81 167.783L167.401 173.326C167.583 173.431 167.695 173.626 167.695 173.837V184.497C167.695 184.708 167.808 184.903 167.99 185.008Z" fill="white"/>
<path d="M145.2 187.778L137.896 191.999C137.503 192.227 137.503 192.795 137.896 193.022L155.748 203.34C155.931 203.446 156.156 203.446 156.338 203.34L174.19 193.022C174.583 192.795 174.583 192.227 174.19 191.999L166.887 187.778C166.704 187.673 166.48 187.673 166.297 187.778L156.338 193.534C156.156 193.64 155.931 193.64 155.748 193.534L145.789 187.778C145.607 187.673 145.382 187.673 145.2 187.778Z" fill="white"/>
<path d="M154.566 167.272V157.976C154.566 157.522 154.075 157.238 153.682 157.465L135.83 167.783C135.648 167.889 135.535 168.084 135.535 168.295V188.931C135.535 189.386 136.026 189.67 136.42 189.442L144.092 185.008C144.275 184.903 144.387 184.708 144.387 184.497V173.837C144.387 173.626 144.499 173.431 144.682 173.326L154.272 167.783C154.454 167.677 154.566 167.482 154.566 167.272Z" fill="white"/>
<path d="M330.797 133.13V82.4705C330.797 79.5261 329.228 76.8054 326.681 75.3333L282.857 50.0035C280.31 48.5314 277.172 48.5314 274.625 50.0035L230.802 75.3333C228.255 76.8054 226.686 79.5261 226.686 82.4705V133.13C226.686 136.074 228.255 138.795 230.802 140.267L274.625 165.597C277.172 167.069 280.31 167.069 282.857 165.597L326.681 140.267C329.228 138.795 330.797 136.074 330.797 133.13Z" fill="#4866F7"/>
<path d="M298.97 115.598L311.958 123.104C312.624 123.489 313.456 123.008 313.456 122.239V87.3038C313.456 86.9468 313.265 86.6169 312.957 86.4384L282.735 68.9703C282.07 68.5857 281.238 69.0665 281.238 69.8357V85.5719C281.238 85.9289 281.428 86.2588 281.737 86.4372L297.972 95.8214C298.281 95.9999 298.471 96.3297 298.471 96.6867V114.732C298.471 115.089 298.662 115.419 298.97 115.598Z" fill="white"/>
<path d="M260.386 120.287L248.023 127.433C247.357 127.818 247.357 128.779 248.023 129.164L278.244 146.632C278.553 146.81 278.933 146.81 279.242 146.632L309.463 129.164C310.128 128.779 310.128 127.818 309.463 127.433L297.099 120.287C296.791 120.109 296.41 120.109 296.101 120.287L279.242 130.031C278.933 130.21 278.552 130.21 278.244 130.031L261.384 120.287C261.076 120.109 260.695 120.109 260.386 120.287Z" fill="white"/>
<path d="M276.245 85.5719V69.8357C276.245 69.0665 275.413 68.5857 274.748 68.9703L244.526 86.4385C244.218 86.617 244.027 86.9468 244.027 87.3038V122.239C244.027 123.008 244.859 123.489 245.525 123.104L258.513 115.598C258.822 115.419 259.012 115.089 259.012 114.732V96.6868C259.012 96.3299 259.203 96 259.511 95.8215L275.746 86.4373C276.055 86.2588 276.245 85.9289 276.245 85.5719Z" fill="white"/>
</svg>
