<svg width="358" height="210" viewBox="0 0 358 210" fill="none" xmlns="http://www.w3.org/2000/svg">
<path d="M341.333 150.624V102.127C341.333 99.308 339.83 96.7034 337.388 95.2941L295.389 71.0456C292.948 69.6362 289.94 69.6362 287.499 71.0456L245.499 95.2941C243.058 96.7035 241.555 99.308 241.555 102.127V150.624C241.555 153.442 243.058 156.047 245.499 157.456L287.499 181.705C289.94 183.114 292.948 183.114 295.389 181.705L337.388 157.456C339.829 156.047 341.333 153.442 341.333 150.624Z" fill="#FF9CAB"/>
<path d="M130.59 119.842V64.1464C130.59 60.9093 128.863 57.9182 126.059 56.2996L77.8251 28.4517C75.0218 26.8332 71.5679 26.8332 68.7644 28.4517L20.5303 56.2996C17.727 57.9182 16 60.9093 16 64.1464V119.842C16 123.079 17.727 126.071 20.5303 127.689L68.7644 155.537C71.5678 157.156 75.0217 157.156 77.8251 155.537L126.059 127.689C128.863 126.071 130.59 123.079 130.59 119.842Z" fill="#FF1355"/>
<path d="M75.6543 90.8671C77.538 90.1515 79.421 89.4646 81.304 88.8059" stroke="white" stroke-width="14.0359" stroke-miterlimit="10" stroke-linecap="round"/>
<path d="M106.104 81.7601C162.527 69.4234 218.684 82.303 275.665 117.861" stroke="white" stroke-width="14.0359" stroke-miterlimit="10" stroke-linecap="round" stroke-dasharray="13.34 27.79"/>
</svg>
