<svg width="371" height="229" viewBox="0 0 371 229" fill="none" xmlns="http://www.w3.org/2000/svg">
<g opacity="0.2">
<path d="M369.737 68.7662V26.8335C369.737 24.7374 368.619 22.8004 366.804 21.7523L330.489 0.786054C328.674 -0.262018 326.437 -0.262018 324.622 0.786054L288.307 21.7523C286.492 22.8004 285.374 24.7374 285.374 26.8335V68.7662C285.374 70.8623 286.492 72.7993 288.307 73.8473L324.622 94.8136C326.437 95.8617 328.674 95.8617 330.489 94.8136L366.804 73.8473C368.619 72.7993 369.737 70.8623 369.737 68.7662Z" fill="#FF1355"/>
<path d="M287.182 24.4912L285.374 25.5355V26.9339L288.393 25.1904L287.182 24.4912Z" fill="white"/>
<path d="M291.843 27.1816L285.374 30.9169V32.3152L293.054 27.8809L291.843 27.1816Z" fill="white"/>
<path d="M296.504 29.8728L285.374 36.2989V37.6973L297.715 30.572L296.504 29.8728Z" fill="white"/>
<path d="M301.165 32.5635L285.374 41.6805V43.079L302.376 33.2626L301.165 32.5635Z" fill="white"/>
<path d="M305.825 35.2549L285.374 47.0628V48.4613L307.037 35.9541L305.825 35.2549Z" fill="white"/>
<path d="M310.486 37.9463L285.374 52.4453V53.8436L311.697 38.6455L310.486 37.9463Z" fill="white"/>
<path d="M315.147 40.637L285.374 57.8268V59.2252L316.358 41.3361L315.147 40.637Z" fill="white"/>
<path d="M319.808 43.3279L285.374 63.2087V64.6071L321.019 44.0271L319.808 43.3279Z" fill="white"/>
<path d="M324.469 46.0186L285.374 68.5903V69.9887L325.68 46.7178L324.469 46.0186Z" fill="white"/>
<path d="M327.556 49.6182L286.948 73.0629L288.159 73.7621L327.556 51.0166V49.6182Z" fill="white"/>
<path d="M327.556 55.001L291.609 75.7548L292.82 76.454L327.556 56.3994V55.001Z" fill="white"/>
<path d="M327.556 60.3818L296.27 78.4447L297.481 79.1439L327.556 61.7802V60.3818Z" fill="white"/>
<path d="M327.555 65.7646L300.93 81.1367L302.141 81.8359L327.555 67.163V65.7646Z" fill="white"/>
<path d="M327.555 71.1465L305.591 83.8276L306.802 84.5268L327.555 72.545V71.1465Z" fill="white"/>
<path d="M327.556 76.5283L310.252 86.5184L311.463 87.2176L327.556 77.9267V76.5283Z" fill="white"/>
<path d="M327.555 81.9102L314.913 89.2094L316.124 89.9086L327.555 83.3085V81.9102Z" fill="white"/>
<path d="M327.555 87.2917L319.574 91.8999L320.785 92.5992L327.555 88.6901V87.2917Z" fill="white"/>
<path d="M327.555 94.0722V92.6738L324.235 94.5911L325.446 95.2903L327.555 94.0722Z" fill="white"/>
</g>
<path d="M370.455 177.448V135.515C370.455 133.419 369.337 131.482 367.522 130.434L331.207 109.467C329.392 108.419 327.155 108.419 325.34 109.467L289.025 130.434C287.21 131.482 286.092 133.419 286.092 135.515V177.448C286.092 179.544 287.21 181.481 289.025 182.529L325.34 203.495C327.155 204.543 329.392 204.543 331.207 203.495L367.522 182.529C369.337 181.481 370.455 179.544 370.455 177.448Z" fill="#FF1355"/>
<path d="M287.9 133.173L286.092 134.217V135.615L289.111 133.872L287.9 133.173Z" fill="white"/>
<path d="M292.561 135.863L286.092 139.598V140.997L293.772 136.562L292.561 135.863Z" fill="white"/>
<path d="M297.222 138.554L286.092 144.98V146.379L298.433 139.253L297.222 138.554Z" fill="white"/>
<path d="M301.883 141.245L286.092 150.362V151.76L303.094 141.944L301.883 141.245Z" fill="white"/>
<path d="M306.543 143.936L286.092 155.744V157.143L307.755 144.636L306.543 143.936Z" fill="white"/>
<path d="M311.204 146.628L286.092 161.127V162.525L312.415 147.327L311.204 146.628Z" fill="white"/>
<path d="M315.865 149.318L286.092 166.508V167.907L317.076 150.018L315.865 149.318Z" fill="white"/>
<path d="M320.526 152.009L286.092 171.89V173.288L321.737 152.709L320.526 152.009Z" fill="white"/>
<path d="M325.187 154.7L286.092 177.272V178.67L326.398 155.399L325.187 154.7Z" fill="white"/>
<path d="M328.273 158.3L287.666 181.744L288.877 182.443L328.273 159.698V158.3Z" fill="white"/>
<path d="M328.274 163.682L292.327 184.436L293.538 185.135L328.274 165.081V163.682Z" fill="white"/>
<path d="M328.274 169.063L296.988 187.126L298.199 187.825L328.274 170.462V169.063Z" fill="white"/>
<path d="M328.273 174.446L301.648 189.818L302.859 190.517L328.273 175.844V174.446Z" fill="white"/>
<path d="M328.273 179.828L306.309 192.509L307.52 193.208L328.273 181.226V179.828Z" fill="white"/>
<path d="M328.274 185.21L310.97 195.2L312.181 195.899L328.274 186.608V185.21Z" fill="white"/>
<path d="M328.273 190.592L315.631 197.891L316.842 198.59L328.273 191.99V190.592Z" fill="white"/>
<path d="M328.273 195.973L320.292 200.581L321.503 201.281L328.273 197.372V195.973Z" fill="white"/>
<path d="M328.273 202.754V201.355L324.953 203.272L326.164 203.972L328.273 202.754Z" fill="white"/>
<g opacity="0.9">
<path d="M179.728 177.448V135.515C179.728 133.419 178.609 131.482 176.794 130.434L140.479 109.467C138.664 108.419 136.427 108.419 134.612 109.467L98.2973 130.434C96.482 131.482 95.3638 133.419 95.3638 135.515V177.448C95.3638 179.544 96.4821 181.481 98.2973 182.529L134.612 203.495C136.427 204.543 138.664 204.543 140.479 203.495L176.794 182.529C178.609 181.481 179.728 179.544 179.728 177.448Z" fill="#FF1355" fill-opacity="0.6"/>
</g>
<g opacity="0.3">
<path d="M84.3638 177.448V135.515C84.3638 133.419 83.2455 131.482 81.4303 130.434L45.1155 109.467C43.3002 108.419 41.0636 108.419 39.2483 109.467L2.93357 130.434C1.11823 131.482 0 133.419 0 135.515V177.448C0 179.544 1.11832 181.481 2.93357 182.529L39.2483 203.495C41.0636 204.543 43.3002 204.543 45.1155 203.495L81.4303 182.529C83.2456 181.481 84.3638 179.544 84.3638 177.448Z" fill="#FF1355" fill-opacity="0.4"/>
</g>
<path d="M275.092 177.448V135.515C275.092 133.419 273.973 131.482 272.158 130.434L235.843 109.467C234.028 108.419 231.791 108.419 229.976 109.467L193.661 130.434C191.846 131.482 190.728 133.419 190.728 135.515V177.448C190.728 179.544 191.846 181.481 193.661 182.529L229.976 203.495C231.791 204.543 234.028 204.543 235.843 203.495L272.158 182.529C273.973 181.481 275.092 179.544 275.092 177.448Z" fill="#FF1355"/>
<g opacity="0.3">
<path d="M192.537 133.173L190.728 134.217V135.615L193.748 133.872L192.537 133.173Z" fill="white"/>
<path d="M197.197 135.863L190.728 139.598V140.997L198.408 136.562L197.197 135.863Z" fill="white"/>
<path d="M201.858 138.554L190.728 144.98V146.379L203.069 139.253L201.858 138.554Z" fill="white"/>
<path d="M206.519 141.245L190.728 150.362V151.76L207.73 141.944L206.519 141.245Z" fill="white"/>
<path d="M211.18 143.936L190.728 155.744V157.143L212.391 144.636L211.18 143.936Z" fill="white"/>
<path d="M215.841 146.628L190.728 161.127V162.525L217.052 147.327L215.841 146.628Z" fill="white"/>
<path d="M220.501 149.318L190.728 166.508V167.907L221.713 150.018L220.501 149.318Z" fill="white"/>
<path d="M225.162 152.009L190.728 171.89V173.288L226.373 152.709L225.162 152.009Z" fill="white"/>
<path d="M229.823 154.7L190.728 177.272V178.67L231.034 155.399L229.823 154.7Z" fill="white"/>
<path d="M232.91 158.3L192.302 181.744L193.513 182.443L232.91 159.698V158.3Z" fill="white"/>
<path d="M232.91 163.682L196.963 184.436L198.174 185.135L232.91 165.081V163.682Z" fill="white"/>
<path d="M232.909 169.063L201.623 187.126L202.834 187.825L232.909 170.462V169.063Z" fill="white"/>
<path d="M232.909 174.446L206.284 189.818L207.495 190.517L232.909 175.844V174.446Z" fill="white"/>
<path d="M232.91 179.828L210.946 192.509L212.157 193.208L232.91 181.226V179.828Z" fill="white"/>
<path d="M232.91 185.21L215.607 195.2L216.818 195.899L232.91 186.608V185.21Z" fill="white"/>
<path d="M232.909 190.592L220.267 197.891L221.478 198.59L232.909 191.99V190.592Z" fill="white"/>
<path d="M232.91 195.973L224.928 200.581L226.139 201.281L232.91 197.372V195.973Z" fill="white"/>
<path d="M232.91 202.754V201.355L229.589 203.272L230.8 203.972L232.91 202.754Z" fill="white"/>
</g>
</svg>
