<svg width="358" height="210" viewBox="0 0 358 210" fill="none" xmlns="http://www.w3.org/2000/svg">
<path d="M282.157 174.297H75.8434V186.617H282.157V174.297Z" fill="#A7B2E5"/>
<path d="M235.57 98.6709H130.109V110.991H235.57V98.6709Z" fill="#A7B2E5"/>
<path d="M180.379 12.4453L69.4518 186.401L79.8392 193.024L190.766 19.0691L180.379 12.4453Z" fill="#A7B2E5"/>
<path d="M225.182 100.512L170.413 186.401L180.8 193.024L235.57 107.136L225.182 100.512Z" fill="#A7B2E5"/>
<path d="M173.459 29.4326L284.386 203.388L294.774 196.764L183.846 22.8088L173.459 29.4326Z" fill="#A7B2E5"/>
<path d="M114.152 95.2885L173.34 188.107L183.727 181.483L124.539 88.6647L114.152 95.2885Z" fill="#A7B2E5"/>
<path d="M100.548 193.336V171.86C100.548 170.612 99.8822 169.459 98.8012 168.835L80.2024 158.097C79.1214 157.472 77.7896 157.472 76.7086 158.097L58.1098 168.835C57.0288 169.459 56.3629 170.612 56.3629 171.86V193.336C56.3629 194.585 57.0288 195.738 58.1098 196.362L76.7086 207.1C77.7896 207.724 79.1214 207.724 80.2024 207.1L98.8012 196.362C99.8822 195.738 100.548 194.585 100.548 193.336Z" fill="#4255E1"/>
<path d="M150.82 115.569V94.0926C150.82 92.8444 150.155 91.6911 149.074 91.067L130.475 80.3289C129.394 79.7048 128.062 79.7048 126.981 80.3289L108.382 91.067C107.301 91.6911 106.635 92.8444 106.635 94.0926V115.569C106.635 116.817 107.301 117.97 108.382 118.594L126.981 129.332C128.062 129.957 129.394 129.957 130.475 129.332L149.074 118.594C150.155 117.97 150.82 116.817 150.82 115.569Z" fill="#4255E1"/>
<path d="M251.365 115.738V94.2623C251.365 93.0141 250.699 91.8608 249.618 91.2367L231.02 80.4986C229.939 79.8745 228.607 79.8745 227.526 80.4986L208.927 91.2367C207.846 91.8608 207.18 93.0141 207.18 94.2623V115.738C207.18 116.987 207.846 118.14 208.927 118.764L227.526 129.502C228.607 130.126 229.939 130.126 231.02 129.502L249.618 118.764C250.699 118.14 251.365 116.987 251.365 115.738Z" fill="#4255E1"/>
<path d="M201.093 193.336V171.86C201.093 170.612 200.427 169.458 199.346 168.834L180.747 158.096C179.666 157.472 178.334 157.472 177.253 158.096L158.655 168.834C157.574 169.458 156.908 170.612 156.908 171.86V193.336C156.908 194.584 157.574 195.738 158.655 196.362L177.253 207.1C178.334 207.724 179.666 207.724 180.747 207.1L199.346 196.362C200.427 195.738 201.093 194.584 201.093 193.336Z" fill="#4255E1"/>
<path d="M301.637 193.336V171.86C301.637 170.612 300.971 169.458 299.89 168.834L281.291 158.096C280.21 157.472 278.878 157.472 277.797 158.096L259.199 168.834C258.118 169.458 257.452 170.612 257.452 171.86V193.336C257.452 194.584 258.118 195.738 259.199 196.362L277.797 207.1C278.878 207.724 280.21 207.724 281.291 207.1L299.89 196.362C300.971 195.738 301.637 194.584 301.637 193.336Z" fill="#4255E1"/>
<path d="M201.093 38.1398V16.6637C201.093 15.4155 200.427 14.2621 199.346 13.638L180.747 2.89997C179.666 2.27586 178.334 2.27586 177.253 2.89997L158.655 13.638C157.574 14.2621 156.908 15.4155 156.908 16.6637V38.1398C156.908 39.388 157.574 40.5413 158.655 41.1654L177.253 51.9035C178.334 52.5276 179.666 52.5276 180.747 51.9035L199.346 41.1654C200.427 40.5413 201.093 39.388 201.093 38.1398Z" fill="#4255E1"/>
</svg>
