<svg width="358" height="181" viewBox="0 0 358 181" fill="none" xmlns="http://www.w3.org/2000/svg">
<path d="M85.8944 152.798V128.348C85.8944 126.927 85.1363 125.614 83.9057 124.904L62.7318 112.679C61.5012 111.969 59.985 111.969 58.7543 112.679L37.5805 124.904C36.3499 125.614 35.5918 126.927 35.5918 128.348V152.798C35.5918 154.219 36.3499 155.532 37.5805 156.242L58.7544 168.467C59.985 169.178 61.5012 169.178 62.7319 168.467L83.9057 156.242C85.1364 155.532 85.8944 154.219 85.8944 152.798Z" fill="#F4CA1D"/>
<path d="M114.896 103.405V78.956C114.896 77.535 114.138 76.2219 112.908 75.5114L91.7338 63.2867C90.5032 62.5762 88.987 62.5762 87.7564 63.2867L66.5825 75.5114C65.3518 76.2219 64.5938 77.535 64.5938 78.956V103.405C64.5938 104.826 65.3518 106.139 66.5825 106.85L87.7564 119.075C88.987 119.785 90.5032 119.785 91.7338 119.075L112.908 106.85C114.138 106.139 114.896 104.826 114.896 103.405Z" fill="#F4CA1D"/>
<path d="M202.355 152.798V128.348C202.355 126.927 201.597 125.614 200.366 124.904L179.192 112.679C177.962 111.969 176.445 111.969 175.215 112.679L154.041 124.904C152.81 125.614 152.052 126.927 152.052 128.348V152.798C152.052 154.219 152.81 155.532 154.041 156.242L175.215 168.467C176.445 169.178 177.962 169.178 179.192 168.467L200.366 156.242C201.597 155.532 202.355 154.219 202.355 152.798Z" fill="#479FF8"/>
<path d="M142.992 152.798V128.348C142.992 126.927 142.234 125.614 141.003 124.904L119.829 112.679C118.599 111.969 117.082 111.969 115.852 112.679L94.6779 124.904C93.4473 125.614 92.6892 126.927 92.6892 128.348V152.798C92.6892 154.219 93.4473 155.532 94.6779 156.242L115.852 168.467C117.082 169.178 118.599 169.178 119.829 168.467L141.003 156.242C142.234 155.532 142.992 154.219 142.992 152.798Z" fill="#479FF8"/>
<path d="M173.244 103.405V78.956C173.244 77.535 172.486 76.2219 171.255 75.5114L150.081 63.2867C148.851 62.5762 147.334 62.5762 146.104 63.2867L124.93 75.5114C123.699 76.2219 122.941 77.535 122.941 78.956V103.405C122.941 104.826 123.699 106.139 124.93 106.85L146.104 119.075C147.334 119.785 148.851 119.785 150.081 119.075L171.255 106.85C172.486 106.139 173.244 104.826 173.244 103.405Z" fill="#F4CA1D"/>
<path d="M234.283 103.405V78.956C234.283 77.535 233.525 76.2219 232.294 75.5114L211.12 63.2867C209.889 62.5762 208.373 62.5762 207.143 63.2867L185.969 75.5114C184.738 76.2219 183.98 77.535 183.98 78.956V103.405C183.98 104.826 184.738 106.139 185.969 106.85L207.143 119.075C208.373 119.785 209.889 119.785 211.12 119.075L232.294 106.85C233.525 106.139 234.283 104.826 234.283 103.405Z" fill="#479FF8"/>
<path d="M321.741 152.798V128.348C321.741 126.927 320.983 125.614 319.753 124.904L298.579 112.679C297.348 111.969 295.832 111.969 294.601 112.679L273.427 124.904C272.197 125.614 271.439 126.927 271.439 128.348V152.798C271.439 154.219 272.197 155.532 273.427 156.242L294.601 168.467C295.832 169.178 297.348 169.178 298.579 168.467L319.753 156.242C320.983 155.532 321.741 154.219 321.741 152.798Z" fill="#479FF8"/>
<path d="M262.378 152.798V128.348C262.378 126.927 261.62 125.614 260.39 124.904L239.216 112.679C237.985 111.969 236.469 111.969 235.238 112.679L214.064 124.904C212.834 125.614 212.076 126.927 212.076 128.348V152.798C212.076 154.219 212.834 155.532 214.064 156.242L235.238 168.467C236.469 169.178 237.985 169.178 239.216 168.467L260.39 156.242C261.62 155.532 262.378 154.219 262.378 152.798Z" fill="#F4CA1D"/>
<path d="M202.355 52.6516V28.2022C202.355 26.7812 201.597 25.4682 200.366 24.7576L179.192 12.5329C177.962 11.8224 176.445 11.8224 175.215 12.5329L154.041 24.7576C152.81 25.4682 152.052 26.7812 152.052 28.2022V52.6516C152.052 54.0726 152.81 55.3857 154.041 56.0962L175.215 68.3209C176.445 69.0314 177.962 69.0314 179.192 68.3209L200.366 56.0962C201.597 55.3857 202.355 54.0726 202.355 52.6516Z" fill="#F4CA1D"/>
<path d="M142.992 52.6516V28.2022C142.992 26.7812 142.234 25.4682 141.003 24.7576L119.829 12.5329C118.599 11.8224 117.082 11.8224 115.852 12.5329L94.6779 24.7576C93.4473 25.4682 92.6892 26.7812 92.6892 28.2022V52.6516C92.6892 54.0726 93.4473 55.3857 94.6779 56.0962L115.852 68.3209C117.082 69.0314 118.599 69.0314 119.829 68.3209L141.003 56.0962C142.234 55.3857 142.992 54.0726 142.992 52.6516Z" fill="#479FF8"/>
<path d="M262.378 52.6516V28.2022C262.378 26.7812 261.62 25.4682 260.39 24.7576L239.216 12.5329C237.985 11.8224 236.469 11.8224 235.238 12.5329L214.064 24.7576C212.834 25.4682 212.076 26.7812 212.076 28.2022V52.6516C212.076 54.0726 212.834 55.3857 214.064 56.0962L235.238 68.3209C236.469 69.0314 237.985 69.0314 239.216 68.3209L260.39 56.0962C261.62 55.3857 262.378 54.0726 262.378 52.6516Z" fill="#F4CA1D"/>
<path d="M292.63 103.405V78.956C292.63 77.535 291.872 76.2219 290.642 75.5114L269.468 63.2867C268.237 62.5762 266.721 62.5762 265.49 63.2867L244.316 75.5114C243.086 76.2219 242.328 77.535 242.328 78.956V103.405C242.328 104.826 243.086 106.139 244.316 106.85L265.49 119.075C266.721 119.785 268.237 119.785 269.468 119.075L290.642 106.85C291.872 106.139 292.63 104.826 292.63 103.405Z" fill="#F4CA1D"/>
</svg>
