<svg width="358" height="210" viewBox="0 0 358 210" fill="none" xmlns="http://www.w3.org/2000/svg">
<path opacity="0.3" d="M16 179.967L38.8768 159.574C42.7024 156.164 47.41 155.097 51.845 156.636L121.297 180.728C127.331 182.821 133.716 180.059 137.743 173.614L216.675 47.276C221.977 38.7887 231.107 36.9806 237.977 43.0572L324.451 119.545" stroke="#7C71D1" stroke-opacity="0.7" stroke-width="11.9767" stroke-miterlimit="10" stroke-linecap="round"/>
<path d="M16 135.935L34.9662 93.7039C37.2436 88.6331 41.9556 86.6718 45.9375 89.1374L63.5361 100.034C67.1519 102.273 71.4272 100.878 73.8974 96.6543L111.109 33.0215C114.669 26.9343 121.529 27.1417 124.886 33.438L149.815 80.2054C152.604 85.4373 157.986 86.6266 161.855 82.866L179.739 65.4813C183.447 61.8775 188.581 62.8013 191.467 67.5918L216.589 109.284C219.226 113.661 223.791 114.862 227.444 112.14L249.872 95.4229C252.887 93.1756 256.597 93.5676 259.32 96.4212L281.269 119.429C284.767 123.096 289.742 122.591 292.799 118.257L324.451 73.3877" stroke="#7C71D1" stroke-width="12.2245" stroke-miterlimit="10" stroke-linecap="round"/>
<path d="M341.333 77.8696V61.4589C341.333 60.5052 340.824 59.6238 339.998 59.1469L325.786 50.9416C324.96 50.4648 323.943 50.4648 323.117 50.9416L308.905 59.1469C308.079 59.6238 307.57 60.5052 307.57 61.4589V77.8696C307.57 78.8233 308.079 79.7047 308.905 80.1816L323.117 88.3869C323.943 88.8637 324.96 88.8637 325.786 88.3869L339.998 80.1816C340.824 79.7047 341.333 78.8233 341.333 77.8696Z" fill="#ECCE49" stroke="#7C71D1" stroke-width="5.9943" stroke-miterlimit="10"/>
</svg>
