<?xml version="1.0" encoding="UTF-8"?>
<svg id="Layer_2" data-name="Layer 2" xmlns="http://www.w3.org/2000/svg" viewBox="0 0 62.9921 61.4735">
  <defs>
    <style>
      .cls-1 {
        fill: #f9f9f9;
      }
    </style>
  </defs>
  <g id="Layer_12" data-name="Layer 12">
    <path class="cls-1" d="M62.9921,29.5891v3.897c-.088-.0155-.0533.7036-.0898,1.1057-.4115,4.5318-1.8003,8.8849-4.1327,12.8065-1.4806,2.4895-3.2808,4.7867-5.346,6.8134-3.4223,3.3586-7.5409,5.773-12.0423,7.2618h-.935c-.584-.2257-1.0748-.7197-1.076-1.4212l-.0163-9.195c-.0663-2.0292-.5403-4.0289-2.1199-5.4302,1.516-.1894,2.9327-.3849,4.3742-.7981,1.7519-.5022,3.3894-1.2688,4.8786-2.3093,1.4812-1.0349,2.624-2.3739,3.4057-3.9954.7672-1.5914,1.2417-3.2404,1.5021-4.9904.5939-4.5283.2272-8.4099-3.0081-11.9105,1.1215-2.7854.7591-5.687-.3435-8.3964-1.5658-.5775-5.5653,1.3351-6.8548,2.1377l-1.7938,1.1165c-5.158-1.417-10.5877-1.4171-15.7514.0002-.755-.479-1.4719-.9763-2.2816-1.3987-1.1408-.5951-2.2986-1.0557-3.4973-1.5131-.9091-.2874-1.9645-.5908-2.9162-.3322-1.0743,2.7384-1.4136,5.5943-.2936,8.386-3.2504,3.5096-3.6052,7.4231-3.0005,11.9608.2689,1.7669.7639,3.425,1.5479,5.0259.8081,1.6502,1.9852,3.0201,3.5136,4.0485,2.8449,1.9144,5.5883,2.5749,9.0342,2.9657-1.2302,1.1994-1.7427,2.5521-1.9895,4.2235-1.1299.5654-2.3428.7495-3.5859.8208-1.162.0666-2.2333-.1751-3.2214-.8365-.8972-.6006-1.6375-1.3885-2.1772-2.3433-.6772-1.1982-1.5986-2.1486-2.8115-2.8103-.509-.2777-.9995-.528-1.5831-.6115-.5948-.0851-1.1858-.1508-1.7495.0784-.1169.0475-.2225.1401-.2541.2201-.0452.1147-.0241.2513.0423.3696.723,1.2898,1.5292,1.0499,2.6192,2.35.8443,1.0071,1.5167,2.0913,1.9659,3.3334.4228,1.169,1.1084,2.1355,2.1489,2.8266.8057.5352,1.6525.8894,2.6197,1.0465,1.5117.2456,3.0165.4137,4.5314.1763l1.3762-.2157.0291,5.9966c.0035.7131-.5186,1.2031-1.1151,1.4249h-.994c-7.0781-2.42-12.5482-6.6854-16.6547-12.9831C1.8501,43.7425.1884,38.2894.0166,32.6399c-.1896-6.2339,1.2421-12.0439,4.4695-17.3911,2.6679-4.4202,6.348-8.1066,10.7752-10.7734C20.8401,1.1148,26.7797-.2609,33.2687.0404c5.1505.2391,10.0989,1.7754,14.5109,4.4361,4.4603,2.6898,8.1698,6.409,10.8389,10.8836,2.3933,4.0124,3.8855,8.4688,4.277,13.1257.0327.3884.0966.7652.0966,1.1034Z"/>
  </g>
</svg>