<?xml version="1.0" encoding="UTF-8"?>
<svg id="Layer_2" data-name="Layer 2" xmlns="http://www.w3.org/2000/svg" viewBox="0 0 62.9921 62.985">
  <defs>
    <style>
      .cls-1 {
        fill: #f9f9f9;
      }
    </style>
  </defs>
  <g id="Layer_12" data-name="Layer 12">
    <path class="cls-1" d="M29.5662.0605c17.4524-1.0745,32.3514,12.3042,33.3703,29.5592,1.024,17.341-12.2246,32.2692-29.557,33.3082C16.1048,63.9635,1.1876,50.8004.0665,33.5157-1.0533,16.2521,12.0978,1.136,29.5662.0605ZM31.836,32.4458c-1.5606,1.4758-3.0561,2.7717-4.4464,4.3111-.4187.4636-.6786,1.1165-.414,1.6982.2381.5235.657.9438,1.1483,1.2748l9.9005,6.6699c.8351.5626,2.0322.8634,2.9082.4235.7586-.3809,1.2433-1.3187,1.4165-2.2004,1.3323-6.7814,2.415-13.5255,3.3889-20.3839.188-1.3235.7064-4.1766-.0694-4.9293-.2698-.2618-.7824-.5108-1.2534-.428-4.1912.7369-7.9231,2.5126-11.7961,4.1979l-18.3769,7.9965c-.8018.3489-2.2738.9179-2.1179,1.906.1437.9109,1.981,1.3351,2.9074,1.6448,1.7284.5776,3.4391,1.1409,5.2964,1.2464,1.0323.0587,2.043-.2969,2.9067-.8701l13.5727-9.0076c.3365-.2233.739-.0784.8594.113.1662.2643.033.595-.1805.826-1.7919,1.9382-3.6825,3.6502-5.6503,5.511Z"/>
  </g>
</svg>