<?xml version="1.0" encoding="UTF-8"?>
<svg id="Layer_2" data-name="Layer 2" xmlns="http://www.w3.org/2000/svg" viewBox="0 0 62.9921 62.9815">
  <defs>
    <style>
      .cls-1 {
        fill: #f9f9f9;
      }
    </style>
  </defs>
  <g id="Layer_12" data-name="Layer 12">
    <g>
      <path class="cls-1" d="M28.6888.1276c17.4272-1.5624,32.691,11.4069,34.1844,28.638,1.4983,17.2874-11.3424,32.5759-28.6195,34.0936C17.014,64.3738,1.7463,51.636.137,34.3937-1.4709,17.1673,11.2615,1.69,28.6888.1276ZM50.9782,49.7092l-15.8691-21.2215,14.0494-15.2089c-1.134-.0899-2.2294-.0553-3.3984-.0248l-12.1912,13.1589-9.8722-13.1893-11.6015.0222,15.0412,20.1291-15.1136,16.331,3.3972.0301,13.25-14.303,10.7321,14.3297,11.5761-.0535Z"/>
      <polygon class="cls-1" points="45.9275 47.1718 40.641 47.2046 17.1489 15.7898 22.4227 15.7423 45.9275 47.1718"/>
    </g>
  </g>
</svg>