<?xml version="1.0" encoding="UTF-8"?>
<svg id="Layer_2" data-name="Layer 2" xmlns="http://www.w3.org/2000/svg" viewBox="0 0 62.9921 62.9929">
  <defs>
    <style>
      .cls-1 {
        fill: #f9f9f9;
      }
    </style>
  </defs>
  <g id="Layer_12" data-name="Layer 12">
    <g>
      <path class="cls-1" d="M62.9305,29.5486c1.1676,18.8539-14.4415,34.4469-33.1873,33.3939C12.8541,61.9938-.2302,47.8851.0031,31.0479.2365,14.2051,13.7544.5005,30.5897.0133c16.8772-.4884,31.2859,12.5007,32.3408,29.5353ZM38.9691,45.526c2.4888-.052,4.7658-.1917,7.172-.5281,2.1337-.2983,4.0471-1.6703,4.4752-3.8794,1.0704-5.5241,1.2176-13.3869.0979-18.9117-.4858-2.3971-2.2734-3.9157-4.6832-4.2289-6.8044-.8843-22.491-.8487-29.357-.0116-2.2625.2759-4.3424,1.5739-4.7797,3.9338-.9976,5.3832-1.2547,13.7974-.0286,19.1359.5189,2.2591,2.3188,3.6647,4.5578,3.9654,2.3842.3202,4.6827.4791,7.099.5194l8.7194.1455,6.727-.1404Z"/>
      <polygon class="cls-1" points="37.5971 31.4938 27.2732 37.4833 27.2542 25.4733 37.5971 31.4938"/>
    </g>
  </g>
</svg>