<?xml version="1.0" encoding="UTF-8"?>
<svg id="Layer_2" data-name="Layer 2" xmlns="http://www.w3.org/2000/svg" viewBox="0 0 982.1625 168.909">
  <defs>
    <style>
      .cls-1 {
        fill: #fff;
        fill-rule: evenodd;
      }
    </style>
  </defs>
  <g id="Partners">
    <g>
      <path class="cls-1" d="M150.8512,114.9891h-48.9568V30.0523h-14.9307v99.8705h63.8874v-14.9337Z"/>
      <path class="cls-1" d="M535.3648,30.0535h-14.9322v99.8672h63.8884v-14.9307h-48.9563V30.0535Z"/>
      <path class="cls-1" d="M464.6086,83.8295h38.7805v-14.9307h-38.7805v-23.9124h45.4934v-14.9305h-60.4236v99.8673h63.8874v-14.9342h-48.9573v-31.1595Z"/>
      <path class="cls-1" d="M606.2775,83.8295h38.783v-14.9307h-38.783v-23.9124h45.4924v-14.9305h-60.4195v99.8673h63.8834v-14.9342h-48.9563v-31.1595Z"/>
      <path class="cls-1" d="M749.9719,30.4996l-.061-.0522,17.2533,98.3697h15.0033l-10.4373-60.1331,61.7908,59.8471h21.0625l-105.2314-101.5317.6197,3.5001Z"/>
      <path class="cls-1" d="M794.3317,128.7744h3.4791l11.9102-.066h4.886l-24.4096-23.5502.1422.8116-.0102-.0107,4.0022,22.8153Z"/>
      <path class="cls-1" d="M933.2062,30.0535h-14.9322v99.8672h63.8885v-14.9337h-48.9563v-31.16h38.7831v-14.9271h-38.7831v-23.9124h45.4924v-14.9339h-45.4924Z"/>
      <path class="cls-1" d="M863.162,30.0535h-31.4439v14.9304h31.4439v84.9368h14.9271V44.9839h32.1499v-14.9304h-47.077Z"/>
      <path class="cls-1" d="M676.7686,75.8814v-30.8291h28.0868c8.5123,0,15.4146,6.9025,15.4146,15.4144s-6.9023,15.4147-15.4146,15.4147h-28.0868ZM735.8321,60.4667c0-16.797-13.6117-30.4145-30.4078-30.4145h-43.6741v60.833h.0914v39.0375h14.9271v-39.0375h16.588l26.497,39.0375h18.6043l-27.2945-39.5845c14.0535-2.6853,24.6686-15.0348,24.6686-29.8715Z"/>
      <path class="cls-1" d="M48.6049,114.8555H14.9305v-30.8289h33.6745c8.5117,0,15.4145,6.8993,15.4145,15.4147s-6.9028,15.4142-15.4145,15.4142ZM43.2659,45.8733c6.3176,0,11.4408,5.1232,11.4408,11.4445,0,6.3142-5.1231,11.4404-11.4408,11.4404H14.9305v-22.8849h28.3355ZM64.3745,73.0941c3.2912-3.8585,5.2766-8.8598,5.2766-14.3242v-3.312c0-14.0285-11.3744-25.4031-25.4065-25.4031H0v99.867h14.9305v-.066h34.2387c16.7971,0,30.4179-13.6172,30.4179-30.4144,0-11.2596-6.1191-21.0879-15.2126-26.3472Z"/>
      <path class="cls-1" d="M406.6986,29.9655c-24.2816,0-44.4989,17.3579-48.9395,40.3438h15.272c4.3674-14.4568,17.7861-24.9815,33.6675-24.9815,10.2357,0,19.451,4.3743,25.88,11.3572l10.4027-11.0472c-9.0898-9.6472-21.9828-15.6723-36.2827-15.6723Z"/>
      <path class="cls-1" d="M406.6981,115.659c-16.5463,0-30.4216-11.4267-34.1688-26.82h-14.8611c4.249,23.2191,24.5812,40.8172,49.0299,40.8172,14.2059,0,27.0263-5.9449,36.1019-15.4807l-10.0127-10.1031c-6.4325,7.1151-15.7382,11.5867-26.0892,11.5867Z"/>
      <path class="cls-1" d="M314.3653,115.659c-16.5468,0-30.4216-11.4267-34.1693-26.82h-14.8606c4.2491,23.2191,24.5843,40.8172,49.0299,40.8172,14.2059,0,27.0257-5.9449,36.1054-15.4807l-10.0163-10.1031c-6.433,7.1151-15.7387,11.5867-26.0892,11.5867Z"/>
      <path class="cls-1" d="M314.3653,45.3265c10.2357,0,19.4545,4.3743,25.8804,11.3574l10.4028-11.0474c-9.0863-9.6472-21.9828-15.6722-36.2832-15.6722-24.278,0-44.499,17.3614-48.936,40.344h15.2684c4.3674-14.4568,17.7866-24.9818,33.6675-24.9818Z"/>
      <path class="cls-1" d="M181.2088,103.4024c-3.5522-4.1343-6.1608-9.097-7.4915-14.565h-14.8606c1.9051,10.417,7.0491,19.7019,14.3486,26.7718l8.0034-12.2068Z"/>
      <path class="cls-1" d="M207.8856,45.3265c3.6117,0,7.0943.5468,10.3748,1.5568l8.6302-13.1647c-5.8581-2.417-12.2764-3.7544-19.005-3.7544-24.278,0-44.4989,17.3614-48.9359,40.344h15.2684c4.3674-14.4568,17.7861-24.9818,33.6675-24.9818Z"/>
      <path class="cls-1" d="M242.3993,43.8533l-8.5048,12.9764c3.4761,3.8174,6.1227,8.4077,7.655,13.4786h15.272c-1.9889-10.2986-7.1502-19.4687-14.4223-26.455Z"/>
      <path class="cls-1" d="M244.9316,113.155c6.0394-6.7078,10.288-15.0663,11.9808-24.3161h-14.8606c-1.0417,4.2907-2.8767,8.2747-5.3324,11.7852l8.2122,12.5309Z"/>
      <path class="cls-1" d="M207.8851,115.6595c-3.9667,0-7.7769-.6582-11.3327-1.867l-7.8811,12.0224c5.9134,2.473,12.4018,3.8412,19.2138,3.8412,8.0035,0,15.5681-1.8873,22.2723-5.2415l-7.7805-11.8726c-4.4197,2.0026-9.3265,3.1175-14.4918,3.1175Z"/>
      <path class="cls-1" d="M252.1966,141.1168c-2.6817,0-4.855-2.1733-4.855-4.855,0-2.6781,2.1733-4.8514,4.855-4.8514s4.855,2.1733,4.855,4.8514c0,2.6817-2.1733,4.855-4.855,4.855ZM202.3693,94.0022c-1.9783-.7872-3.7508-1.9818-5.207-3.4862-2.5944-2.6817-4.1963-6.3279-4.1963-10.3504,0-8.2229,6.6657-14.8855,14.885-14.8855,1.6542,0,3.246.2717,4.7331.7735.2509.0833.5013.1737.7486.2712h.0035c1.7274.6862,3.2983,1.6857,4.6356,2.929,2.929,2.7167,4.7641,6.6001,4.7641,10.9117,0,8.2193-6.6657,14.8814-14.885,14.8814-1.9366,0-3.7823-.3723-5.4817-1.0447ZM157.4838,162.7269c-2.6817,0-4.855-2.1697-4.855-4.8514s2.1733-4.855,4.855-4.855c2.6781,0,4.8514,2.1733,4.8514,4.855s-2.1733,4.8514-4.8514,4.8514ZM139.7882,84.8392c-2.6817,0-4.855-2.1733-4.855-4.855,0-2.6781,2.1733-4.8514,4.855-4.8514,2.6781,0,4.8514,2.1733,4.8514,4.8514,0,2.6817-2.1733,4.855-4.8514,4.855ZM251.7613,6.2375c2.6817,0,4.855,2.1732,4.855,4.8514,0,2.6817-2.1733,4.8549-4.855,4.8549s-4.855-2.1732-4.855-4.8549c0-2.6782,2.1733-4.8514,4.855-4.8514ZM312.8238,75.1328c2.6817,0,4.855,2.1733,4.855,4.8514,0,2.6817-2.1733,4.855-4.855,4.855-2.6781,0-4.8514-2.1733-4.8514-4.855,0-2.6781,2.1733-4.8514,4.8514-4.8514ZM406.9622,75.1328c2.6781,0,4.8479,2.1733,4.8479,4.8514,0,2.6817-2.1697,4.855-4.8479,4.855-2.6853,0-4.855-2.1733-4.855-4.855,0-2.6781,2.1697-4.8514,4.855-4.8514ZM252.1616,125.1729c-1.3266,0-2.5979.2331-3.7788.6613l-23.4247-29.0873c3.5106-3.6223,5.8825-8.3483,6.5514-13.6071h70.6227v-.2301c1.2921,4.6737,5.5721,8.1111,10.6572,8.1111,5.081,0,9.3616-3.4303,10.6567-8.0969h72.8203c1.2992,4.6666,5.5798,8.0969,10.6608,8.0969,6.109,0,11.061-4.9556,11.061-11.0646s-4.952-11.061-11.061-11.061c-4.9627,0-9.1595,3.2668-10.5633,7.7632h-73.0118c-1.4033-4.4964-5.6001-7.7632-10.5628-7.7632-5.0851,0-9.3651,3.4339-10.6572,8.1076v-.1285h-.8639v-.2159h-69.8181c-.8741-6.0882-4.0469-11.4338-8.6058-15.1364l25.2324-40.0198c1.1423.4005,2.3719.6199,3.6498.6199,6.1125,0,11.0645-4.9525,11.0645-11.0611s-4.952-11.0611-11.0645-11.0611c-6.1085,0-11.061,4.9524-11.061,11.0611,0,2.5528.867,4.9002,2.316,6.7704l-25.4761,40.4136c-2.9707-1.3271-6.2619-2.0621-9.7237-2.0621-12.1164,0-22.1261,9.0066-23.7071,20.6912h-33.6985c-1.3342-4.6077-5.5828-7.9791-10.6227-7.9791-6.1085,0-11.061,4.9525-11.061,11.061s4.9525,11.0646,11.061,11.0646c5.0013,0,9.2295-3.3222,10.5947-7.8811h33.7021c.7664,6.0496,3.793,11.3916,8.2056,15.1602l-30.9929,49.1584c-1.191-.4353-2.473-.6755-3.8138-.6755-6.1085,0-11.061,4.9525-11.061,11.0645s4.9525,11.0615,11.061,11.0615,11.0615-4.9525,11.0615-11.0615c0-2.4902-.8223-4.7849-2.2084-6.6347l31.2088-49.4997c3.1104,1.48,6.593,2.3089,10.2707,2.3089,4.4822,0,8.679-1.2327,12.2662-3.3816l23.2922,28.9238c-1.4033,1.8528-2.2393,4.1658-2.2393,6.6697,0,6.112,4.9525,11.061,11.061,11.061,6.1125,0,11.065-4.949,11.065-11.061,0-6.109-4.9525-11.061-11.065-11.061Z"/>
    </g>
  </g>
</svg>