<?xml version="1.0" encoding="UTF-8"?>
<svg id="Layer_2" data-name="Layer 2" xmlns="http://www.w3.org/2000/svg" viewBox="0 0 837.769 179.8482">
  <defs>
    <style>
      .cls-1 {
        fill: #fff;
      }
    </style>
  </defs>
  <g id="Partners">
    <g id="eePqno.tif">
      <g>
        <path class="cls-1" d="M0,95.2467v-9.8628C0,42.3253,43.1104-.6702,89.4714,1.095l89.3133-.0025.0057,64.9793-65.008-.0102-.0297-64.9249-44.6814,44.6303.0202,64.9886,64.9947.0186,44.6607-44.6457.039,23.7468c.3437,47.7803-37.2014,87.4471-84.8666,89.7936-3.0852.1519-5.9281.2943-8.9817.0378l-2.3982-.2014C36.9049,175.6735,2.9285,139.9393,0,95.2467Z"/>
        <path class="cls-1" d="M537.7623,0c4.8467.6464,9.4744,1.4147,13.8272,3.7123,12.5821,6.3358,16.1022,20.7178,15.8019,33.5928l-52.5292.0042c.8724,8.8733,5.8263,15.9195,14.561,17.5476,4.5783.8534,9.202.6107,13.5957-.7981,4.2788-1.5082,7.5384-4.4894,8.9819-8.9816l14.9931-.0077c-2.075,9.012-8.4405,16.1578-17.2593,19.3978-8.8444,3.2494-18.7452,3.6097-27.8319,1.0383-9.8432-2.7854-17.1875-10.0056-20.1778-19.7176-2.5169-8.1743-2.4076-16.9522.3037-25.0714,2.6026-7.7935,8.0652-13.8493,15.4034-17.3308,4.2193-2.0018,8.5498-2.7396,12.9947-3.3859h7.3357ZM552.0078,27.3524c-.6088-6.9952-4.1386-12.8616-10.9891-14.8648-4.1777-1.2216-8.5324-1.3218-12.7803-.3374-7.4739,1.7321-11.9888,7.7201-13.1358,15.2031l36.9052-.001Z"/>
        <path class="cls-1" d="M324.1809,0c5.0489,0,9.9901,1.5988,14.6779,3.9616,7.314,3.6864,12.5434,10.006,14.803,17.9435,2.1841,7.6722,2.1315,15.7723-.1224,23.4324-2.8258,9.6039-9.9274,16.8123-19.5066,19.8202-8.9457,2.809-18.7257,2.7297-27.6027-.2789-9.6169-3.2593-16.5749-10.7517-19.0496-20.561-1.9779-7.8402-1.7649-16.0656.6845-23.7618,2.4301-7.6355,7.6818-13.5591,14.8449-16.9706,4.5006-2.1434,9.1709-2.9594,13.9353-3.5855h7.3357ZM338.9796,43.4438c1.9073-6.308,1.8866-13.1762-.0672-19.4685-3.427-11.0364-14.8771-13.8316-24.9335-11.359-5.717,1.4057-9.9905,5.4909-11.6814,11.187-3.3804,11.3876-1.1868,28.0148,13.0284,30.9734,9.5997,1.998,20.4675-.7952,23.6536-11.3329Z"/>
        <path class="cls-1" d="M678.551,0c4.8212,0,9.645,1.2141,14.1791,3.306,7.3061,3.3708,11.2649,9.5182,12.4048,17.5955l-15.2136.0022c-1.1052-8.5119-9.8132-9.514-16.7318-9.3883-4.3318.0787-11.9819.8131-13.4068,5.7692-.6701,2.3307-.5307,4.8182,1.1037,6.5494,1.2396,1.313,3.1539,2.1186,5.0233,2.3425l21.9068,2.624c3.3518.4015,6.4828,1.2463,9.4465,2.6913,6.8632,3.3461,9.0139,10.0549,8.4718,17.2858-.7981,10.6474-9.7806,15.9219-19.4641,17.5451-7.0915,1.1887-14.221,1.1261-21.3167-.042-11.2201-1.8471-20.0625-8.1032-21.377-20.12l15.284.0023c.5992,3.3486,2.474,5.9499,5.4802,7.4676,4.8076,2.3181,12.6264,2.3646,17.8763,1.6333,2.099-.2924,3.9846-.8896,5.8318-1.8582,3.7676-1.9754,4.993-7.0698,2.0617-10.3261-1.232-1.3686-3.3689-2.1107-5.2355-2.3335l-20.92-2.4967c-7.0233-.8382-15.087-3.5549-17.5579-10.8725-1.4963-4.4313-1.5032-9.1896-.0056-13.6075,1.5478-4.5658,4.9044-7.8431,9.1454-10.0484,4.6948-2.4414,9.7598-3.0677,14.8315-3.721h8.1821Z"/>
        <path class="cls-1" d="M467.2268,0c4.6518,0,9.3157,1.1943,13.7074,3.155,7.6056,3.3956,11.6933,9.735,12.6923,17.7494l-15.1589-.0014c-1.1272-8.4441-9.6496-9.4945-16.602-9.3889-4.2676.0648-12.0904.7836-13.5173,5.6955-.6873,2.366-.5784,4.8177,1.0104,6.5513,1.2034,1.3132,3.1151,2.1735,4.9726,2.3966l22.1244,2.6581c7.7884.9357,15.3929,4.3075,17.2842,12.5964,1.8878,8.2734-.3566,16.341-7.8385,20.9323-8.7921,5.3953-22.3787,5.5637-32.2742,3.9595-11.2301-1.8205-20.2355-8.07-21.4873-20.1451l15.2782.0112c.6079,3.4561,2.5557,6.0958,5.6274,7.5045,4.8942,2.2445,12.0381,2.3224,17.35,1.6435,3.7384-.4778,8.9178-2.192,9.6675-6.3576.4011-2.2292.1357-4.4221-1.4587-5.9482-1.3745-1.3157-3.3782-2.0596-5.3354-2.2925l-20.9196-2.4893c-7.0555-.8395-15.0666-3.6523-17.4694-11.0138-1.4146-4.3339-1.4251-8.963-.0054-13.2838,1.4627-4.4514,4.655-7.7308,8.7319-9.9616,4.8313-2.6436,10.1386-3.3404,15.4385-3.9709h8.1821Z"/>
        <path class="cls-1" d="M810.5934,0c4.4409,0,8.8997,1.121,13.1434,2.8762,7.9153,3.2739,12.178,9.5454,13.3901,18.0289l-15.2156-.0039c-1.0908-8.2754-9.3271-9.4305-16.1153-9.386-4.4071.0289-12.5581.6485-14.0223,5.7654-.6789,2.3726-.5305,4.8706,1.139,6.5998,1.165,1.2067,3.0198,2.0606,4.7854,2.2723l21.8813,2.623c5.9675.7153,12.1411,2.7252,15.5812,7.8337,2.0198,2.9994,2.4597,6.342,2.593,9.8931.4321,11.5089-8.2861,17.7616-18.7437,19.6863-7.3037,1.3443-14.6845,1.3015-22.0132.1056-11.1537-1.8201-20.1237-8.0415-21.4176-20.1153l15.281-.0016c.5982,3.4095,2.5136,5.9653,5.5081,7.475,4.8215,2.3093,12.6389,2.3488,17.8924,1.6081,2.0938-.2952,3.9851-.8972,5.8266-1.8761,3.7252-1.9802,4.9295-7.0335,2.0371-10.2784-1.2263-1.3758-3.3489-2.123-5.2092-2.3453l-21.1984-2.5329c-8.4892-1.0143-16.7976-4.6189-18.1423-14.0073-1.3313-9.295,2.0272-16.6477,10.5568-20.7943,4.5633-2.2184,9.4181-2.7932,14.2801-3.4264h8.1821Z"/>
        <path class="cls-1" d="M251.6705,0c4.4657,0,8.8865,1.3191,13.1348,3.2227,9.7252,4.3577,14.869,13.1133,16.1111,23.5748l-15.1559.0113c-1.2134-6.8716-4.6669-12.4427-11.7953-14.2013-4.5679-1.1269-9.2538-1.0589-13.8111.1542-5.5303,1.4721-9.6204,5.4722-11.2655,11.0151-1.8343,6.1803-1.8858,12.8726-.0743,19.052,1.727,5.8908,6.0755,10.1605,11.9722,11.6813,8.3928,2.1646,19.6359.6645,23.6462-8.2797.8036-1.9346,1.3117-3.7759,1.7617-5.9713l15.2701.0112c-1.3093,11.8367-8.3194,21.16-19.7036,24.7566-9.0023,2.8441-18.8262,2.9117-27.8286.1586-9.7917-2.9944-17.0336-10.3494-19.7647-20.1705-2.1692-7.8005-2.0727-16.0634.2654-23.8081,2.4347-8.0644,8.0069-14.2924,15.596-17.7508,4.5524-2.0746,9.2335-2.8265,14.0237-3.4562h7.6178Z"/>
        <path class="cls-1" d="M405.4378,0c3.4799.5006,6.9329,1.3292,10.0942,3.1218,7.3853,4.1877,10.1607,12.0898,10.4193,20.3046l-.0056,42.6461-14.6632-.0165.0024-39.8233c-.0845-6.3828-2.3307-12.033-8.8087-13.9739-3.9829-1.1933-8.1817-1.2875-12.2953-.4468-5.782,1.1816-9.7326,5.1196-12.2914,10.2636l.0037,43.982-14.6641.0109-.001-64.978,14.6497.0013.0322,16.952c.9456-2.326,1.8814-4.601,3.1962-6.8407,3.8564-6.8842,10.5537-10.3406,18.1246-11.203h6.2071Z"/>
        <path class="cls-1" d="M616.762,0c4.0574.5286,8.0683,1.564,11.5588,3.9578,6.4169,4.4007,9.0707,12.1515,9.0711,19.7535l.0019,42.3691-14.6548-.0319.0032-39.8027c-.0818-6.331-2.2721-11.968-8.7053-13.9514-4.0455-1.2473-8.3306-1.328-12.4995-.4573-5.6949,1.1894-9.5971,5.0803-12.1734,10.1947l-.0126,44.0474-14.6583-.0316.0003-64.9503,14.6392-.0081.0653,16.7472c4.368-11.0703,9.6901-16.1556,21.1569-17.8365h6.2071Z"/>
        <polygon class="cls-1" points="748.5132 82.0254 712.9447 82.0473 712.9196 70.0179 737.6457 70.0135 741.2524 59.0043 727.1343 58.9337 705.8187 1.1231 722.0022 1.1024 741.6009 57.9426 760.4251 1.099 775.7332 1.1343 748.5132 82.0254"/>
      </g>
    </g>
  </g>
</svg>