<?xml version="1.0" encoding="UTF-8"?>
<svg id="Layer_2" data-name="Layer 2" xmlns="http://www.w3.org/2000/svg" viewBox="0 0 619.5081 230.6706">
  <defs>
    <style>
      .cls-1 {
        fill: #fff;
      }
    </style>
  </defs>
  <g id="Partners">
    <g id="bozrTr">
      <g>
        <path class="cls-1" d="M235.829,97.6685l-26.3647.212-19.3239-31.3251-19.1396-30.799.1076,62.1699-22.1809.0573-.0431-95.6405,26.4336-.0934,37.8232,61.4267c.8693-8.485.4578-16.0509.3645-24.1242l-.431-37.3221,22.7509.1216.0033,95.3167Z"/>
        <path class="cls-1" d="M324.163,67.0878c1.9863,20.3649-13.7039,29.7824-31.5188,30.5709-14.1125.6246-27.6339.4045-42.5618.0722l-.0392-95.4189,38.2663-.03c5.4925-.0043,10.9888,1.065,16.0011,2.4533,11.472,3.875,17.6718,14.1003,15.7916,26.1685-1.2061,7.7417-6.6391,13.3182-14.4225,16.7114,9.589,2.5445,17.4787,9.172,18.4833,19.4726ZM290.0004,39.69c5.3329-.7457,8.1539-5.9171,7.9432-10.2046-.5446-11.0831-18.0772-8.5406-25.8085-8.6756l-.048,19.4154c5.9179.0851,11.7588.3254,17.9132-.5352ZM298.0421,60.8768c-2.7687-2.187-7.2069-3.3327-10.4946-3.3034l-15.534.1386.0959,21.5036c8.4976-.2043,25.3505,2.0834,28.2718-7.8044,1.0386-3.5153.9842-7.9093-2.339-10.5344Z"/>
        <path class="cls-1" d="M559.7815,98.0722l-.0473-40.1916c-6.6874-.6796-13.0732-.5081-19.8772-.4775-5.8702.0263-11.3585-.5402-17.0583.8151l-.0676,39.7449-22.6644.0614.2359-9.4684-.004-75.2302-.2761-11.1713,22.7227.2087.1041,35.8866,36.8078-.0277.2832-36.0865,23.3183.2461.0171,95.5171-23.4942.1734Z"/>
        <path class="cls-1" d="M390.8824,2.2414l23.2365.0232-.2766,62.5995c-.0613,13.887-8.2915,25.8371-20.8512,31.3961-12.1549,5.3799-25.9236,5.6507-38.4705.8227-13.0214-5.0106-21.9702-17.9683-21.9958-32.0917l-.1134-62.714,22.8633.1124.1116,59.9601c.0091,4.8946,2.5513,10.3808,6.1887,13.3908,5.6546,4.6792,13.7369,5.015,20.3036,1.8148,5.7661-2.81,8.875-9.545,8.8877-16.0767l.1159-59.2372Z"/>
        <path class="cls-1" d="M134.9495,58.3366l-39.4407.169-.0151,19.426,44.3165.0596-.063,19.9849-62.2696.0786c-1.2398.0016-3.6583-1.1209-4.3554-1.9491l-.0085-93.8505,64.2559-.0837.0248,20.0504-41.8786.0092-.2426,17.5974,39.6374.0983.0391,18.4101Z"/>
        <path class="cls-1" d="M472.0359,97.0342c-16.9282,6.5605-41.4695,2.7577-53.4049-10.6472l15.1333-15.3319c6.5213,6.9008,14.6261,10.784,23.3864,10.0355,5.3793-.4596,9.1872-3.3482,10.1335-8.1504.8925-4.529-1.7676-9.3064-6.738-11.1064l-20.9102-7.5726c-9.7857-3.5439-15.9034-12.3395-16.4096-22.4903-.6253-12.5389,5.7477-23.0692,17.2764-27.9704,15.8076-6.7204,38.0794-4.8054,51.3348,7.9685l-14.8857,15.4394c-7.5131-9.4078-25.2701-11.382-29.488-2.1616-5.7911,12.6595,17.7418,14.1294,29.698,20.7724,7.5538,4.197,12.8205,10.7423,13.6568,19.019,1.4167,14.021-4.9006,26.8161-18.7827,32.196Z"/>
        <polygon class="cls-1" points="62.0363 41.5879 62.3455 60.9122 25.4892 60.991 25.3928 97.9323 2.502 97.8259 2.4958 2.4455 65.1756 2.4619 65.3357 22.1682 25.5345 22.3388 25.4554 41.5701 62.0363 41.5879"/>
        <path class="cls-1" d="M404.9617,203.2299l-49.0346-.0034-10.1969,24.8425c-3.4777.4104-7.1692.4123-11.0411-.197l41.0755-94.9111c3.1129-.2164,6.2171-.2284,9.8772-.0921l40.7314,94.9934c-4.065.4953-7.2854.5284-10.986.3642l-10.4255-24.9966ZM401.0421,193.8415l-20.6452-49.5324-20.6205,49.6022,41.2658-.0698Z"/>
        <path class="cls-1" d="M153.3429,203.2854l-49.0032.011-10.1575,24.6707c-3.4604.5539-7.3151.5873-11.1188-.1085l41.0495-94.7121c3.2049-.6104,6.2841-.6291,9.9329-.2948l40.7147,95.0383c-3.8677.5468-7.2987.5434-10.926.2784l-10.4915-24.883ZM149.463,193.8767l-20.6421-49.5844-20.642,49.6486,41.2841-.0642Z"/>
        <polygon class="cls-1" points="619.5081 97.9041 596.6475 97.8822 596.567 2.2794 619.4954 2.199 619.5081 97.9041"/>
        <path class="cls-1" d="M10.8955,185.8559c2.3281,20.1533,17.2817,35.2621,37.127,36.0787,12.2625.5046,22.7997-4.032,29.9717-14.215l7.6268,5.1041c-12.1098,19.0499-37.5622,21.5262-56.7611,13.6398C10.1524,218.7789.2148,200.5028.0032,180.731c-.3199-29.8885,23.5223-52.6825,53.5952-50.271,11.663.9352,23.0419,5.1293,30.3787,14.9486l-8.0574,6.0446c-6.2215-7.3542-14.0091-11.5172-23.3446-12.2322-15.3446-1.1753-29.2749,6.1406-36.6192,19.6341-4.4276,8.1348-6.1668,17.4233-5.0604,27.0008Z"/>
        <path class="cls-1" d="M241.2439,157.8512c.2383,17.4992-13.3557,25.7681-29.0779,25.916l-20.2226.1902-.0247,44.0604c-3.3202.4382-6.2636.4489-9.9815-.0536l-.0263-95.2265,30.6622.0516c6.1577.0104,12.6905,1.8501,17.713,4.7924,7.6841,4.5016,10.8431,11.8473,10.9578,20.2696ZM229.0978,166.7446c3.8012-6.3028,2.8744-15.0727-2.3638-20.0229-3.6476-3.447-9.6061-5.1756-14.6133-5.2306l-20.1628-.2211-.0832,33.9426c11.1867-.3473,30.0093,3.4933,37.2231-8.468Z"/>
        <path class="cls-1" d="M313.6628,227.7646c-3.1624.8048-6.3022.7752-9.6994.1668l-.0117-86.2076-31.779-.0154-.0318-9.0919,73.1597-.0233.1543,9.0412-31.7825.0727-.0096,86.0575Z"/>
        <path class="cls-1" d="M488.0996,219.4352c.414,2.6426.4291,5.556.1305,8.9426l-53.8051.0469-.0754-95.6143,9.9677-.0523.0089,86.6139,43.7734.0632Z"/>
        <path class="cls-1" d="M264.3869,227.8369c-3.2179.7202-6.6672.679-10.1976.1257l.0188-95.0926,10.192-.0159-.0132,94.9829Z"/>
      </g>
    </g>
  </g>
</svg>