<?xml version="1.0" encoding="UTF-8"?>
<svg id="Layer_2" data-name="Layer 2" xmlns="http://www.w3.org/2000/svg" viewBox="0 0 639.2465 186.9641">
  <defs>
    <style>
      .cls-1 {
        fill: #fff;
      }
    </style>
  </defs>
  <g id="Partners">
    <g id="dU02qV">
      <g>
        <path class="cls-1" d="M160.6563,157.4425l-3.1887,1.7418c-.6937.379.3444,2.6413.3492,3.4801l.1406,24.2696-130.3781.0302-.4769-26.1392C-8.8493,121.4363-9.5043,65.3895,27.9586,26.9559c35.9347-36.3357,94.1725-35.8714,130.0284.9956l-130.3677-.0147.0559,131.9315,129.2077.1263.2982-132.6506c36.1876,36.4773,36.1173,92.9145,3.4751,130.0985Z"/>
        <path class="cls-1" d="M236.8906,138.7642l14.2823-.2647c1.4557,9.4592,7.6236,13.8635,16.1706,14.9293,8.8433,1.1028,17.8671-2.0752,21.6776-10.5896,2.7397-6.1218,3.2255-12.8607,2.3484-20.1621-6.2099,8.049-14.0659,11.499-24.0856,11.3196-10.8922-.195-20.7204-4.3133-26.3814-14.3937-8.8529-15.7639-8.3674-36.7992,1.488-51.9679,6.3508-9.7746,16.3771-13.5104,27.3629-13.1809,8.9048.2671,15.4396,4.4204,21.3426,11.2008l-.2254-9.716,14.6121-.0276-.1301,15.7514-.4105,61.9487c-.0741,11.186-6.5058,22.254-16.2719,27.0564-11.4644,5.6375-25.3845,5.5443-36.5934.4777-9.1727-4.1462-14.5629-11.2042-15.1861-22.3814ZM287.5636,114.0931c5.7209-11.7076,5.2738-25.0812,1.0645-36.5956-3.1301-8.5623-10.9079-13.0715-19.1342-12.693-19.7899.9105-21.8612,26.8495-18.5545,42.198,1.8528,8.6,7.992,14.9374,15.3297,16.3942,8.1532,1.6187,17.1878-.8993,21.2945-9.3035Z"/>
        <path class="cls-1" d="M384.9253,133.7336c-4.0493,1.021-9.1444,1.1399-14.3228.7548l-.2793-10.5342c-10.3256,14.6902-33.9438,16.9994-45.9764,2.4746-13.9105-16.7917-13.5086-41.5626-2.187-59.2537,4.9034-7.6621,11.7334-11.6635,20.3745-12.7934,10.9465-1.4314,20.9306,2.0262,27.628,11.1266l-.3259-9.6065,15.118.2261-.0291,77.6058ZM367.7203,77.2979c-3.4141-8.4293-10.8531-13.116-19.1822-12.4398-22.0593,1.7908-22.0996,32.3547-16.615,47.555,3.0631,8.4893,10.3502,13.2891,18.5865,12.9088,22.5722-1.0422,23.4737-32.5605,17.2106-48.024Z"/>
        <path class="cls-1" d="M477.085,134.7438l-1.1347-9.7559c-10.7208,13.249-30.3114,14.9884-43.3844,3.7285-15.0311-12.9463-18.2783-48.5756.7104-67.4804,9.9798-9.9356,33.9668-10.5169,42.9652,4.4976l.5312-9.8548,13.9667.049.0112,78.6285-13.6655.1875ZM470.5857,118.8961c8.3784-10.4327,7.6243-32.1634,2.8813-42.8145-3.3639-7.5542-10.5542-11.6474-18.0327-11.3576-7.7314.2996-14.4535,4.827-17.3051,12.7888-4.5692,12.7578-4.5921,27.5018,2.4891,39.6248,6.0026,10.2764,22.3678,11.2214,29.9674,1.7585Z"/>
        <polygon class="cls-1" points="630.8006 80.6138 613.2699 131.8497 603.34 160.2965 589.7422 160.1145 598.5506 134.5405 586.1594 103.0208 567.6962 55.9123 583.821 55.764 593.8945 83.0145 605.9551 114.7207 624.0749 56.1298 639.2465 56.1554 630.8006 80.6138"/>
        <path class="cls-1" d="M566.4933,134.2564c-5.6631.5886-11.5865.6586-16.4077.0196l-19.1819-31.7566-19.4953,32.001-14.9235-.0523,25.5096-41.7374-23.0575-36.4317,15.4982-.665,18.0419,28.8604,16.4054-28.3971,15.1375-.1547-22.5852,37.0196,25.0588,41.2942Z"/>
        <path class="cls-1" d="M411.0275,133.7501c-3.622,1.2861-8.729,1.11-13.5709.5442l-.0308-106.5326c4.5196-.2533,8.8471-.208,13.5737.1186l.028,105.8698Z"/>
      </g>
    </g>
  </g>
</svg>