<?xml version="1.0" encoding="UTF-8"?>
<svg id="Layer_2" data-name="Layer 2" xmlns="http://www.w3.org/2000/svg" viewBox="0 0 622.9574 253.9848">
  <defs>
    <style>
      .cls-1 {
        fill: #fff;
      }
    </style>
  </defs>
  <g id="Partners">
    <g id="jSgGdW.tif">
      <g>
        <path class="cls-1" d="M344.3194,92.8598c-23.4481-15.934-49.6701-16.9537-73.8189.1396l-51.9326-40.6443,61.6977,23.7009-24.1108-61.2467,41.4189,51.6726L307.3195,0l9.6558,66.58,41.7725-52.2466-24.4815,61.7346,61.8491-23.8052-51.7961,40.597Z"/>
        <path class="cls-1" d="M124.9929,163.2128c8.0946,2.9433,12.0047,9.0813,11.1654,17.9176-2.0827,21.9287-37.9083,13.5055-54.2789,15.0915l.0566-63.966,28.1883-.0471c9.6512-.0161,20.2544,3.4857,22.3602,13.8426,1.3322,6.552-1.1982,12.3956-7.4916,17.1613ZM118.7919,150.7389c-.5659-2.1757-3.4278-5.5963-5.9773-5.6077l-17.2675-.077-.0734,13.0301c4.6002-.2099,25.8758,2.4872,23.3182-7.3454ZM115.5043,183.7512c4.663-.0324,6.8519-3.9319,6.5402-7.4154-.8471-9.4685-18.9152-5.5259-26.5012-6.2314l-.0284,13.7859,19.9894-.1391Z"/>
        <path class="cls-1" d="M258.4777,195.8261l-16.0981.5822-13.564-19.9097c-3.343-.3933-6.9338-.4134-10.9266-.2567l-.3641,20.1192-13.8525-.3148.0684-63.8176,27.1955-.0053c13.4326-.0026,25.7706,5.4622,26.0873,20.722.1966,9.4747-4.2323,17.5104-13.6079,20.5922l15.0619,22.2884ZM242.6397,154.4622c-.1554-12.1259-15.9211-9.1156-24.9025-8.9198l.0484,18.2304c8.2842-.2507,25.0065,2.5864,24.854-9.3106Z"/>
        <polygon class="cls-1" points="187.8864 170.7274 158.368 170.8205 158.389 183.5209 192.77 183.6436 192.7612 196.2769 144.0541 196.3277 144.0414 132.2186 191.9699 132.1469 192.0553 144.9526 158.6016 144.9974 158.3955 157.8983 187.9386 158.0567 187.8864 170.7274"/>
        <path class="cls-1" d="M428.2496,164.3609c-.0327,8.6145,4.544,15.1891,10.9912,18.5093,14.0105,7.2151,22.5254-7.6661,25.6515-4.4455l7.5044,7.7309c-6.5855,8.1558-16.4022,11.69-26.8615,11.4573-18.8466-.4193-32.4806-15.0953-32.162-33.6859.332-19.3669,15.8049-33.4794,35.1577-32.4211,8.8305.4829,16.9479,2.6064,23.4969,9.7802l-7.9946,9.6253c-1.1246.0218-3.6303-1.0679-4.5856-1.836-5.9947-4.8197-13.5565-5.8775-20.2559-2.887-6.5092,2.9055-10.9105,9.826-10.9422,18.1727Z"/>
        <path class="cls-1" d="M383.6342,132.6846l-24.0881,38.1259-.1319,25.5357-14.6211-.2475-.0868-25.2137-24.4141-38.5257,16.4316-.2333,15.5449,25.5713,15.617-25.4255c5.3256-.1096,9.4065-.1094,15.7484.4127Z"/>
        <path class="cls-1" d="M622.9574,132.7003l-24.592,38.6323-.1258,24.6758c-4.6733.2715-9.1573.2749-13.9028.0332l-.1616-24.7598-24.4934-38.9086,16.3201-.1919,15.4232,25.6269,15.6495-25.3885c5.0409-.2915,8.5381-.3419,15.8828.2805Z"/>
        <polygon class="cls-1" points="536.1698 196.2254 522.0525 196.152 521.935 145.4593 502.4005 145.0345 502.687 132.204 555.5558 132.1602 555.7765 145.1698 536.2209 145.2075 536.1698 196.2254"/>
        <path class="cls-1" d="M294.8336,195.8719c-4.6777.4826-9.1953.4821-13.9502.1004l-.0969-50.6036-19.2031-.2932.3457-12.8864,52.4672.0031.2577,12.8733-19.7553.3109-.0652,50.4957Z"/>
        <polygon class="cls-1" points="46.1991 183.606 46.2495 196.3098 .1132 196.339 0 132.3663 14.1569 132.3515 14.2398 183.544 46.1991 183.606"/>
        <polygon class="cls-1" points="497.0567 197.4582 481.651 197.4928 481.6447 131.9873 497.0112 131.9121 497.0567 197.4582"/>
        <polygon class="cls-1" points="70.0951 197.424 54.6802 197.5473 54.6619 131.9607 70.0761 132.0251 70.0951 197.424"/>
        <path class="cls-1" d="M236.793,253.0032c-1.2947.9081-4.9207.6436-5.7448-.413l-10.8185-13.8705-.5484,14.2785c-.7777.4274-3.8276.5541-5.724.3845l.0786-24.6243c1.6917-1.1421,5.4591-.4274,6.5301.9618l10.1056,13.1073.6203-14.1599c.8743-.3341,4.128-.1895,5.5287.2483l-.0278,24.0872Z"/>
        <path class="cls-1" d="M379.1878,253.7218c-4.158.0708-4.6684-9.7497-10.5312-8.1687l-.6103,8.0118-5.4926-.0937-.0106-25.2177,13.2421-.0057c3.4563-.0015,7.2338,3.2568,7.7914,5.9822.8788,4.2954-.8273,7.398-4.532,10.7621l4.5334,7.8574c-.1584.2363-3.0179.8489-4.3901.8723ZM376.2856,234.099c-1.8681-.6082-6.5847-1.1761-7.6096.3717-.647.9772-.794,4.7567.007,5.6023,1.0242,1.0813,7.4472,1.532,8.9758-2.0687.3887-.9158-.4229-3.596-1.3732-3.9054Z"/>
        <path class="cls-1" d="M417.7897,243.8696l.0391,4.6595,12.3453.4136c1.0904.2635,1.1955,4.1885.3885,4.6423l-18.9156.0462-.0665-25.213,19.0378-.2813.4057,4.5326-13.0598.3235c-.6324.6956-.5719,4.7914.5815,4.8428l10.3435.4606.5055,5.1976-11.6051.3756Z"/>
        <path class="cls-1" d="M333.4855,228.5817c.0613,5.7187.1006,11.6899-.1861,16.7186-.3834,6.7226-5.9982,8.8807-11.5992,8.6707-5.5477-.208-10.1011-2.8201-10.4905-9.0413-.3013-4.8139-.3337-10.9951-.2745-15.924,1.0499-.9135,4.8246-1.1651,5.5645-.1093l.1883,13.8684c.0403,2.9668,2.135,5.6127,4.8402,6.2061,1.9466.427,6.004-1.7995,6.0289-4.005l.1835-16.2622c.855-.1183,3.9142-.1886,5.7449-.1219Z"/>
        <path class="cls-1" d="M183.8519,243.4841l-11.1778.3559c-.3879.5414-.2415,4.0856.4471,4.6529l11.4694.4772c1.0354.0431,1.3935,3.6136.9639,4.5823l-18.9645.1282-.0655-25.3239,16.5288-.2184c.9269-.0122,2.9587,1.2108,3.0118,2.0649.0794,1.2769-1.5296,2.7099-2.8356,2.7057l-10.3871-.0342-.498,4.9419,11.2151.5011.2923,5.1663Z"/>
        <path class="cls-1" d="M468.8019,253.9439c-4.4742.0112-8.4822-1.1703-11.2545-3.7239,3.4413-9.6775,10.0531,5.0907,14.4348-3.95-2.3167-3.755-12.6751-2.4021-13.5746-9.1569-.5213-3.9152,1.1959-7.2752,5.0494-8.6606,4.2503-1.528,9.1934-.3843,13.0109,2.3292-.457,1.1286-1.4698,3.1049-2.06,3.9555-.5287.762-2.729-.7859-3.6933-1.0608l-3.6928-1.0528c-.9676-.2759-2.9622,2.1464-2.7022,3.1335,3.9066,4.0642,14.2871,2.1716,13.2967,11.4362-.4476,4.1873-3.1165,6.7362-8.8144,6.7504Z"/>
        <path class="cls-1" d="M139.6646,228.9528l-9.5521,23.6621c-.5729,1.4191-4.5934,1.3945-5.8665.5891l-9.8026-23.9242c1.3392-.712,4.3789-1.1758,5.8915-.8947l6.7925,16.8519,6.3995-16.3003c1.331-.658,4.3442-.5496,6.1377.0163Z"/>
        <path class="cls-1" d="M276.707,252.446c-.0089,1.1416-3.6772,1.3507-5.1602.9226l-.3901-19.2678-7.2461-.9895c-1.0037-.3801-.6234-4.0158.0462-4.9413l19.6948.1509c1.3409.0858,1.3301,4.8154-.0606,4.9524l-6.7398.664-.1441,18.5087Z"/>
      </g>
    </g>
  </g>
</svg>