<?xml version="1.0" encoding="UTF-8"?>
<svg id="Layer_2" data-name="Layer 2" xmlns="http://www.w3.org/2000/svg" viewBox="0 0 1023.3209 157.7539">
  <defs>
    <style>
      .cls-1 {
        fill: #fff;
      }
    </style>
  </defs>
  <g id="Partners">
    <g>
      <g>
        <path class="cls-1" d="M79.5195,78.0074v-3.2766c10.7623-.9326,11.2915-1.5375,11.1655-13.9632l-.4033-47.863h-.5293l-32.3876,64.271h-2.6717L24.9521,14.5429h-.252l-2.0163,33.4461c-.5293,9.6281-.5293,14.7697-.4033,19.483.2772,5.6206,3.453,6.4523,12.2241,7.284v3.2766H3.5788v-3.2766c7.7125-.8317,10.359-2.1172,11.2915-7.032.6553-4.1083,1.4619-9.2752,2.5204-21.4741l1.8651-24.3978c1.1846-15.2486.5293-15.7275-11.5436-16.7861V1.7643h21.7765l30.2452,58.6505L90.4078,1.7643h22.5831v3.2766c-11.6948.9326-12.6022,1.1846-12.2241,13.2575l1.3358,42.4693c.4033,12.4257.8065,13.0306,12.3501,13.9632v3.2766h-34.9332Z"/>
        <path class="cls-1" d="M167.8355,0c22.4319,0,42.7465,15.4755,42.7465,38.9407,0,25.3304-20.0626,40.831-44.3596,40.831-24.0449,0-43.1498-16.534-43.1498-39.0667,0-21.1212,16.7357-40.705,44.6369-40.705h.126ZM164.9118,4.2343c-14.7445,0-28.2793,11.2663-28.2793,33.1941,0,22.0538,13.6859,38.1341,32.3876,38.1341,14.7445,0,28.0272-10.9135,28.0272-33.4209,0-24.7507-14.6185-37.8821-32.0095-37.8821h-.126v-.0252Z"/>
        <path class="cls-1" d="M298.4947,78.94c-1.5879,0-3.0497,0-4.6376-.126-9.9557-.4789-15.5259-3.0497-21.4993-10.6866-4.6376-5.7466-9.4264-13.0306-13.4087-18.7772-2.2684-3.2766-4.5116-4.688-11.4176-4.688h-4.2595v18.6512c0,9.9809,1.1846,10.6866,11.8208,11.3672v3.2766h-34.9332v-3.2766c10.8883-.7057,12.0729-1.4114,12.0729-11.3672V16.1812c0-9.9809-1.0586-10.3338-11.4176-11.1403V1.7643h32.9421c9.7037,0,16.2064,1.0586,21.2473,3.9823,5.3181,3.0497,8.7711,8.3174,8.7711,15.3746,0,10.0817-7.032,16.3072-16.8617,20.0626,2.2684,3.8815,7.8385,11.72,11.8208,17.0129,4.7888,6.0994,7.4353,9.1492,10.7622,12.1989,3.579,3.5286,6.6288,4.814,9.5524,5.5197l-.5545,3.0245ZM249.6235,40.831c6.78,0,11.1655-.9326,14.4673-3.2766,5.1669-3.5286,7.3093-8.2166,7.3093-14.5429,0-12.6778-9.4264-17.3658-19.5082-17.3658-3.8563,0-6.0995.4789-7.158,1.1846-.9326.5797-1.4618,1.9911-1.4618,5.1669v28.8338h6.3515Z"/>
        <path class="cls-1" d="M388.5246,45.8719c-7.9646,1.0586-8.4938,1.6383-8.4938,8.5695v9.9809c0,4.1083.126,7.8638.9325,11.0143-8.2418,1.7643-19.1301,4.3351-29.7411,4.3351-29.2118,0-48.7452-16.0804-48.7452-39.2935C302.477,13.2575,327.1772,0,353.2133,0,364.2276,0,374.4606,2.5708,378.7201,3.4026c.4033,4.1083,1.0586,10.5606,2.1172,18.2983l-3.7303.7057c-3.1757-14.3161-13.2827-18.1723-25.8848-18.1723-20.3147,0-35.1852,13.1315-35.1852,34.8324,0,16.8869,11.2916,36.5967,36.9243,36.5967,4.5116,0,8.6199-.8317,11.5436-2.1172,2.6465-1.2854,4.2595-2.6969,4.2595-7.6369v-9.9557c0-8.4435-.9325-9.1492-13.938-10.0817v-3.1757h33.7234v3.1757h-.0252Z"/>
        <path class="cls-1" d="M448.4101,78.0074v-3.2766c8.3678-.9326,9.5524-1.8651,7.8385-6.4523-1.7139-4.5872-4.3856-10.9135-7.3093-18.0715h-28.2792c-2.1172,5.2677-4.1083,10.2078-5.8474,15.1226-2.9237,7.3849-1.7139,8.5695,8.2418,9.376v3.2766h-28.8086v-3.2766c8.3678-1.0586,10.233-1.7643,14.8706-12.0729L436.5892,1.0586l4.1083-1.0586c8.2418,20.1887,17.1389,42.4693,25.6328,62.8848,4.2595,10.0817,5.9734,11.1403,14.6185,11.846v3.2766h-32.5388ZM435.4046,15.2486h-.2772c-4.2595,10.0817-8.4938,20.2895-12.4761,29.9175h24.423l-11.6696-29.9175Z"/>
        <path class="cls-1" d="M578.792,5.0409c-7.4353.3529-10.611,1.8651-11.1655,7.032-.5293,3.5286-.8065,8.7963-.8065,19.7098v47.2833h-4.1083l-56.5333-61.4734h-.2772v29.4387c0,10.7875.4033,16.4332.8065,19.8358.6553,5.9734,3.7303,7.3849,12.7534,7.8638v3.2766h-31.4802v-3.2766c7.7125-.3529,11.0143-1.8651,11.6948-7.6369.4033-3.6294.8065-9.2752.8065-20.0626v-25.8092c0-8.5695-.2772-9.0231-2.6465-11.846-2.6465-2.9237-5.5702-3.8815-11.8208-4.3351V1.7643h19.6594l55.3739,58.8773h.4033v-28.859c0-10.7875-.5293-16.1812-.9325-19.4829-.6553-5.2677-3.8563-6.8052-13.0055-7.2841V1.7643h31.329v3.2766h-.0505Z"/>
        <path class="cls-1" d="M697.5044,58.6505c-1.8651,5.3937-5.1669,14.064-7.5613,17.9455-3.7303.8317-14.8706,3.1757-24.423,3.1757-33.0681,0-47.5354-20.1887-47.5354-38.8147C617.9848,16.3324,639.4841.0252,669.0992.0252c10.7622,0,19.7854,2.5708,23.5157,3.1757,1.0586,6.6791,1.8651,11.3672,2.6465,17.7186l-3.9823.8317c-3.453-12.4257-11.4176-17.4666-25.7588-17.4666-22.1798,0-34.0006,16.534-34.0006,34.3787,0,21.9278,14.6185,36.9495,34.782,36.9495,13.5347,0,20.7179-6.4523,27.3467-18.1723l3.8562,1.2098Z"/>
        <path class="cls-1" d="M783.6781,78.94c-1.5879,0-3.0497,0-4.6376-.126-9.9557-.4789-15.5259-3.0497-21.4993-10.6866-4.6376-5.7466-9.4264-13.0306-13.4087-18.7772-2.2684-3.2766-4.5116-4.688-11.4176-4.688h-4.2595v18.6512c0,9.9809,1.1846,10.6866,11.8208,11.3672v3.2766h-34.9332v-3.2766c10.8883-.7057,12.0728-1.4114,12.0728-11.3672V16.1812c0-9.9809-1.0586-10.3338-11.4176-11.1403V1.7643h32.942c9.7037,0,16.2064,1.0586,21.2473,3.9823,5.3181,3.0497,8.7711,8.3174,8.7711,15.3746,0,10.0817-7.032,16.3072-16.8617,20.0626,2.2684,3.8815,7.8386,11.72,11.8208,17.0129,4.7888,6.0994,7.4353,9.1492,10.7622,12.1989,3.579,3.5286,6.6288,4.814,9.5524,5.5197l-.5544,3.0245ZM734.8321,40.831c6.7799,0,11.1655-.9326,14.4673-3.2766,5.1669-3.5286,7.3093-8.2166,7.3093-14.5429,0-12.6778-9.4264-17.3658-19.5081-17.3658-3.8563,0-6.0994.4789-7.158,1.1846-.9325.5797-1.4619,1.9911-1.4619,5.1669v28.8338h6.3515Z"/>
        <path class="cls-1" d="M855.3844,59.4822c-.8065,3.8815-3.453,14.8958-4.6376,18.5252h-63.9938v-3.2766c12.0728-.8317,13.1566-1.7643,13.1566-11.2663V16.7861c0-10.5606-1.0586-10.9135-11.4176-11.72V1.7643h59.2302c0,2.9237.6553,10.9135,1.0586,16.8869l-3.8563.5797c-1.1846-4.9148-2.5204-7.5109-4.2595-10.0817-1.8651-2.47-5.4442-3.2766-14.9966-3.2766h-10.0817c-4.1083,0-4.3855.2268-4.3855,3.7554v26.6158h12.4761c11.9468,0,12.6022-.9326,14.3412-8.7963h3.8563v22.5327h-3.8563c-1.7139-8.4435-2.6465-9.1492-14.2152-9.1492h-12.6022v22.1798c0,5.5197.8065,7.9646,3.1758,9.502,2.5204,1.4114,7.158,1.5375,13.812,1.5375,10.0817,0,13.812-.9326,16.7357-3.9823,2.2684-2.344,4.7888-6.3263,6.5027-11.0143l3.957.4285Z"/>
        <path class="cls-1" d="M930.821,59.4822c-.8065,3.8815-3.453,14.8958-4.6376,18.5252h-63.9938v-3.2766c12.0728-.8317,13.1566-1.7643,13.1566-11.2663V16.7861c0-10.5606-1.0586-10.9135-11.4176-11.72V1.7643h59.2302c0,2.9237.6553,10.9135,1.0586,16.8869l-3.8563.5797c-1.1846-4.9148-2.5204-7.5109-4.2595-10.0817-1.8651-2.47-5.4442-3.2766-14.9966-3.2766h-10.0817c-4.1083,0-4.3855.2268-4.3855,3.7554v26.6158h12.4761c11.9468,0,12.6022-.9326,14.3412-8.7963h3.8563v22.5327h-3.8563c-1.7139-8.4435-2.6465-9.1492-14.2152-9.1492h-12.6022v22.1798c0,5.5197.8065,7.9646,3.1758,9.502,2.5204,1.4114,7.158,1.5375,13.812,1.5375,10.0817,0,13.812-.9326,16.7357-3.9823,2.2684-2.344,4.7888-6.3263,6.5027-11.0143l3.957.4285Z"/>
        <path class="cls-1" d="M1001.8467,78.0074c-10.233-10.2078-20.97-21.7009-32.942-34.1267-3.0497-3.1757-4.9148-3.6294-7.158-3.2766v22.2806c0,10.3338,1.3358,11.1403,12.2241,11.846v3.2766h-34.5299v-3.2766c10.0817-.7057,11.2916-1.5375,11.2916-11.846V17.0129c0-10.6866-1.1846-11.2663-11.6948-11.9721V1.7643h34.2527v3.2766c-10.233.7057-11.5436,1.5375-11.5436,11.9721v20.5163c2.9237-.7057,5.5702-2.344,9.3004-5.3937,7.3093-6.2255,16.3324-14.3161,22.3058-20.7684,3.8563-4.2343,3.8563-5.3937-2.2684-5.9734l-2.9237-.3529V1.7643h31.8582v3.2766c-10.0817.8317-13.1566,1.9911-21.6505,8.7963-5.0409,4.1083-14.4673,12.4257-23.5157,20.5163,10.0817,11.0143,24.5742,25.5824,31.203,31.9087,7.032,6.6791,9.7037,7.7377,16.2064,8.4435v3.2766h-20.4155v.0252Z"/>
      </g>
      <g>
        <path class="cls-1" d="M41.713,147.9494c-.8317,2.5708-2.47,6.6035-3.5538,8.4183-1.7139.3277-7.3345,1.3862-11.6948,1.3862-16.4584,0-23.4148-9.2248-23.4148-17.6934,0-11.0395,10.0565-18.5504,24.8011-18.5504,5.1165,0,9.6785,1.109,11.3924,1.4366.5797,2.9237,1.0082,5.3433,1.3862,8.4687l-2.1424.3781c-1.8903-6.0742-6.4019-8.1158-12.0225-8.1158-9.6785,0-14.921,7.3597-14.921,15.299,0,9.8549,6.5279,16.4836,15.5007,16.4836,5.6962,0,9.4264-2.8733,12.6022-8.2166l2.0668.7057Z"/>
        <path class="cls-1" d="M86.6271,156.9474v-1.6887c3.8059-.4789,4.2343-1.0082,3.3018-3.3018-.7057-1.7643-1.7643-4.2595-2.8985-6.8304h-12.6022c-.8317,1.9155-1.7139,4.0075-2.47,6.1246-1.0838,2.8733-.7561,3.579,3.8563,4.0075v1.7139h-13.9884v-1.7139c4.1083-.4285,4.9401-.9578,7.0824-5.545l13.0306-27.5735,2.7725-.6301c3.9823,9.2752,7.9646,18.878,12.0981,28.0524,2.092,4.688,2.8985,5.3433,6.9564,5.6962v1.7139h-17.139v-.0252ZM80.9309,130.2308h-.126c-1.8903,4.1083-3.6042,8.267-5.3685,12.2745h10.5606l-5.0661-12.2745Z"/>
        <path class="cls-1" d="M142.1774,122.2914c4.814,0,8.4183.5797,10.9387,2.092,2.7725,1.7139,4.4864,4.2595,4.4864,7.7881,0,7.032-6.2759,10.3338-12.7786,10.9891-.9578.1008-1.9659.1008-2.7221.1008l-4.436-.9578v7.7377c0,4.5368.5797,4.8644,6.0742,5.2173v1.7139h-18.8024v-1.7139c4.8644-.3781,5.4441-.7561,5.4441-5.2173v-20.7936c0-4.5872-.5797-4.8644-5.0661-5.2173v-1.7139h16.8617v-.0252ZM137.6911,140.3125c.7561.3277,2.218.5797,3.8563.5797,2.9741,0,8.0402-1.5375,8.0402-8.5947,0-5.9734-4.1839-8.1158-8.4686-8.1158-1.4618,0-2.3944.2772-2.7725.5797-.4537.3277-.6301.9074-.6301,1.9155v13.6355h-.0252Z"/>
        <path class="cls-1" d="M179.5303,156.9474v-1.6887c4.8644-.3277,5.4441-.7057,5.4441-5.2173v-20.7936c0-4.5368-.5797-4.9148-5.4441-5.2173v-1.7139h18.1723v1.7139c-4.8644.3277-5.3685.7057-5.3685,5.2173v20.7936c0,4.5368.5041,4.9148,5.3685,5.2173v1.7139h-18.1723v-.0252Z"/>
        <path class="cls-1" d="M254.1855,131.0877c-.7561-2.7221-1.5123-4.3099-2.5204-5.2677-1.0838-1.0586-2.47-1.3862-6.5783-1.3862h-3.4278v25.658c0,4.436.5797,4.8644,6.3263,5.1669v1.7139h-19.735v-1.7139c5.4945-.3277,6.0742-.7561,6.0742-5.1669v-25.658h-2.7725c-5.2425,0-6.4523.5293-7.3345,1.5375-.9578.9074-1.6383,2.6212-2.3944,5.1165h-2.1424c.252-3.6294.6301-7.3597.7561-10.1321h1.4618c.9578,1.235,1.7643,1.3358,3.5538,1.3358h25.3052c1.6383,0,2.3944-.3277,3.4782-1.3358h1.4618c0,2.2936.3277,6.7296.6301,9.9809l-2.1424.1512Z"/>
        <path class="cls-1" d="M296.4531,156.9474v-1.6887c3.8058-.4789,4.2343-1.0082,3.3018-3.3018-.7057-1.7643-1.7643-4.2595-2.8985-6.8304h-12.6022c-.8318,1.9155-1.7139,4.0075-2.47,6.1246-1.0838,2.8733-.7561,3.579,3.8563,4.0075v1.7139h-13.9884v-1.7139c4.1083-.4285,4.94-.9578,7.0824-5.545l13.0306-27.5735,2.7725-.6301c3.9823,9.2752,7.9646,18.878,12.0981,28.0524,2.092,4.688,2.8985,5.3433,6.9564,5.6962v1.7139h-17.1389v-.0252ZM290.757,130.2308h-.126c-1.8903,4.1083-3.6042,8.267-5.3685,12.2745h10.5606l-5.0661-12.2745Z"/>
        <path class="cls-1" d="M366.6472,148.151c-.5041,2.0163-1.7643,7.3093-2.344,8.7963h-29.9932v-1.6887c5.4441-.3277,5.9986-.7057,5.9986-5.2173v-20.7936c0-4.5872-.5041-4.9148-5.4946-5.2173v-1.7139h18.2983v1.7139c-4.8644.3277-5.4441.6301-5.4441,5.2173v20.8944c0,2.6717.252,3.6798,1.5123,4.1587,1.1342.4285,2.9741.5293,5.1921.5293,3.0497,0,5.2425-.3277,6.7043-1.7643,1.2098-1.0586,2.344-2.7725,3.4278-5.3937l2.1424.4789Z"/>
        <path class="cls-1" d="M452.8712,156.9474v-1.7643c4.94-.3781,5.1921-.7561,5.1165-5.923l-.126-20.9448h-.252l-14.5429,28.2541h-1.5879l-13.3583-27.6744h-.2016l-.8318,14.3413c-.252,4.436-.252,6.8808-.0756,8.7459.2016,2.3944,1.5123,2.8733,5.7466,3.201v1.7643h-15.0722v-1.7643c3.6042-.2772,4.814-1.109,5.2425-3.1505.3781-1.7139.8318-4.3099,1.2602-9.9053l.9578-10.7623c.5041-6.3515.0756-6.9312-5.4441-7.3597v-1.7139h12.0981l13.0306,24.5238,13.2323-24.5238h12.0225v1.7139c-5.2425.4285-5.5702.7561-5.4441,5.545l.6301,19.735c.126,5.1669.3781,5.4945,5.4946,5.923v1.7643h-17.8951v-.0252Z"/>
        <path class="cls-1" d="M516.4113,156.9474v-1.6887c3.8059-.4789,4.2343-1.0082,3.3018-3.3018-.7057-1.7643-1.7643-4.2595-2.8985-6.8304h-12.6022c-.8318,1.9155-1.7139,4.0075-2.47,6.1246-1.0838,2.8733-.7561,3.579,3.8563,4.0075v1.7139h-13.9884v-1.7139c4.1083-.4285,4.94-.9578,7.0824-5.545l13.0306-27.5735,2.7725-.6301c3.9823,9.2752,7.9646,18.878,12.098,28.0524,2.092,4.688,2.8985,5.3433,6.9564,5.6962v1.7139h-17.1389v-.0252ZM510.7152,130.2308h-.126c-1.8903,4.1083-3.6042,8.267-5.3685,12.2745h10.5606l-5.0661-12.2745Z"/>
        <path class="cls-1" d="M598.0986,124.0053c-3.4278.1512-4.8141.8569-5.1165,3.2514-.252,1.6635-.5041,4.1083-.5041,8.8971v21.3229h-2.6465l-26.5653-27.0947h-.126v12.5266c0,4.7384.252,7.1328.4537,8.7459.3277,2.4952,1.5879,3.3522,6.0743,3.579v1.7139h-15.2486v-1.6887c3.5538-.2016,5.0661-1.0082,5.3181-3.4026.252-1.7643.5797-4.1587.5797-8.8971v-11.3924c0-3.6798-.126-4.3603-1.2602-5.5954-1.2602-1.3358-2.6465-1.7643-5.4442-1.9659v-1.7139h10.8126l25.0027,24.6246h.2016v-10.7623c0-4.7384-.3277-7.2588-.4537-8.7963-.3277-2.344-1.7139-3.1505-6.2759-3.3522v-1.7139h15.2486v1.7139h-.0505Z"/>
        <path class="cls-1" d="M640.3158,156.9474v-1.6887c3.8059-.4789,4.2343-1.0082,3.3018-3.3018-.7057-1.7643-1.7643-4.2595-2.8985-6.8304h-12.6022c-.8318,1.9155-1.7139,4.0075-2.47,6.1246-1.0838,2.8733-.7561,3.579,3.8563,4.0075v1.7139h-13.9884v-1.7139c4.1083-.4285,4.9401-.9578,7.0824-5.545l13.0306-27.5735,2.7725-.6301c3.9823,9.2752,7.9646,18.878,12.0981,28.0524,2.092,4.688,2.8985,5.3433,6.9564,5.6962v1.7139h-17.139v-.0252ZM634.6196,130.2308h-.126c-1.8903,4.1083-3.6042,8.267-5.3685,12.2745h10.5606l-5.066-12.2745Z"/>
        <path class="cls-1" d="M718.7013,142.3036c-3.4278.4789-3.7303.7561-3.7303,4.1587v4.3099c0,1.9155.0756,3.6294.4537,5.0661-3.8563.7561-9.3004,1.9155-14.3665,1.9155-14.4169,0-23.7929-7.0824-23.7929-17.7439,0-12.2745,11.6948-18.5,24.7506-18.5,5.1921,0,10.0565,1.0586,12.2745,1.5375.2016,1.8147.5041,4.688,1.0082,8.5947l-2.1424.3781c-1.5879-6.1751-6.2759-8.4182-12.2745-8.4182-8.3427,0-15.1226,5.8726-15.1226,15.5763,0,7.9394,4.9401,16.534,16.0047,16.534,1.5879,0,3.2262-.2016,4.2343-.7561,1.0838-.5293,1.6383-1.3358,1.6383-3.1505v-4.8644c0-3.7806-.3781-4.1587-6.8304-4.6376v-1.7139h17.8951v1.7139Z"/>
        <path class="cls-1" d="M773.5207,148.2519c-.3781,2.1928-1.6383,7.0824-2.218,8.6955h-31.6314v-1.6887c5.4946-.3781,6.0743-.7561,6.0743-5.1669v-20.7936c0-4.688-.5797-4.9653-5.2425-5.2677v-1.7139h29.237c.0756,1.0586.3781,4.7384.6301,7.889l-2.1424.2772c-.5797-2.0163-1.3358-3.579-2.344-4.5872-1.0082-1.0586-2.7221-1.4366-6.6539-1.4366h-3.7303c-2.218,0-2.3944.1008-2.3944,1.8147v11.6696h4.8644c5.5702,0,6.2003-.3277,7.032-4.0579h2.092v10.5354h-2.092c-.8318-3.7806-1.5123-4.0579-6.9564-4.0579h-4.9401v9.502c0,2.5708.3277,3.8311,1.5123,4.3603,1.2098.5293,3.4278.5797,6.0743.5797,3.8563,0,5.8726-.3781,7.3345-1.7643,1.2098-1.109,2.344-2.8733,3.4278-5.1165l2.0667.3277Z"/>
        <path class="cls-1" d="M828.567,156.9474v-1.7643c4.9401-.3781,5.1921-.7561,5.1165-5.923l-.126-20.9448h-.252l-14.5429,28.2541h-1.5879l-13.3583-27.6744h-.2016l-.8318,14.3413c-.252,4.436-.252,6.8808-.0756,8.7459.2016,2.3944,1.5123,2.8733,5.7466,3.201v1.7643h-15.0217v-1.7643c3.6042-.2772,4.8141-1.109,5.2425-3.1505.3781-1.7139.8318-4.3099,1.2602-9.9053l.9578-10.7623c.5041-6.3515.0756-6.9312-5.4442-7.3597v-1.7139h12.0981l13.0306,24.5238,13.2323-24.5238h12.0225v1.7139c-5.2425.4285-5.5702.7561-5.4442,5.545l.6301,19.735c.126,5.1669.3781,5.4945,5.4946,5.923v1.7643h-17.9455v-.0252Z"/>
        <path class="cls-1" d="M901.6595,148.2519c-.3781,2.1928-1.6383,7.0824-2.218,8.6955h-31.6566v-1.6887c5.4946-.3781,6.0743-.7561,6.0743-5.1669v-20.7936c0-4.688-.5797-4.9653-5.2425-5.2677v-1.7139h29.237c.0756,1.0586.3781,4.7384.6301,7.889l-2.1424.2772c-.5797-2.0163-1.3358-3.579-2.344-4.5872-1.0082-1.0586-2.7221-1.4366-6.6539-1.4366h-3.7303c-2.218,0-2.3944.1008-2.3944,1.8147v11.6696h4.8644c5.5702,0,6.2003-.3277,7.032-4.0579h2.092v10.5354h-2.092c-.8318-3.7806-1.5123-4.0579-6.9564-4.0579h-4.9401v9.502c0,2.5708.3277,3.8311,1.5123,4.3603,1.2098.5293,3.4278.5797,6.0743.5797,3.8563,0,5.8726-.3781,7.3345-1.7643,1.2098-1.109,2.344-2.8733,3.4278-5.1165l2.0919.3277Z"/>
        <path class="cls-1" d="M965.9306,124.0053c-3.4278.1512-4.8141.8569-5.1165,3.2514-.252,1.6635-.5041,4.1083-.5041,8.8971v21.3229h-2.6465l-26.5653-27.0947h-.126v12.5266c0,4.7384.252,7.1328.4537,8.7459.3277,2.4952,1.5879,3.3522,6.0743,3.579v1.7139h-15.2738v-1.6887c3.5538-.2016,5.0661-1.0082,5.3181-3.4026.252-1.7643.5797-4.1587.5797-8.8971v-11.3924c0-3.6798-.126-4.3603-1.2602-5.5954-1.2602-1.3358-2.6465-1.7643-5.4442-1.9659v-1.7139h10.8126l25.0027,24.6246h.2016v-10.7623c0-4.7384-.3277-7.2588-.4537-8.7963-.3277-2.344-1.7139-3.1505-6.2759-3.3522v-1.7139h15.2486v1.7139h-.0252Z"/>
        <path class="cls-1" d="M1021.1785,131.0877c-.7561-2.7221-1.5123-4.3099-2.5204-5.2677-1.0838-1.0586-2.47-1.3862-6.5784-1.3862h-3.4278v25.658c0,4.436.5797,4.8644,6.3263,5.1669v1.7139h-19.735v-1.7139c5.4946-.3277,6.0743-.7561,6.0743-5.1669v-25.658h-2.7725c-5.2425,0-6.4523.5293-7.3345,1.5375-.9578.9074-1.6383,2.6212-2.3944,5.1165h-2.1424c.252-3.6294.6301-7.3597.7561-10.1321h1.4619c.9578,1.235,1.7643,1.3358,3.5538,1.3358h25.3051c1.6383,0,2.3944-.3277,3.4782-1.3358h1.4619c0,2.2936.3277,6.7296.6301,9.9809l-2.1424.1512Z"/>
      </g>
      <rect class="cls-1" y="91.5924" width="1022.3632" height="11.5939"/>
    </g>
  </g>
</svg>