<?xml version="1.0" encoding="UTF-8"?>
<svg id="Layer_5" data-name="Layer 5" xmlns="http://www.w3.org/2000/svg" xmlns:xlink="http://www.w3.org/1999/xlink" viewBox="0 0 1080 1920">
  <defs>
    <style>
      .cls-1 {
        fill: none;
      }

      .cls-2 {
        fill: #D1DCFF;
      }

      .cls-3 {
        fill: url(#linear-gradient-2);
      }

      .cls-4 {
        fill: url(#linear-gradient);
      }

      .cls-5 {
        clip-path: url(#clippath-1);
      }

      .cls-6 {
        clip-path: url(#clippath);
      }
    </style>
    <clipPath id="clippath">
      <rect class="cls-1" x="-2363.5973" y="-5069.3424" width="3840" height="2160"/>
    </clipPath>
    <clipPath id="clippath-1">
      <rect class="cls-1" x="-2386.959" y="2464.8489" width="3840" height="822.5635"/>
    </clipPath>
    <linearGradient id="linear-gradient" x1="907.5426" y1="774.4617" x2="907.5426" y2="1920" gradientUnits="userSpaceOnUse">
      <stop offset="0" stop-color="#D1DCFF" stop-opacity="0"/>
      <stop offset=".5054" stop-color="#D1DCFF"/>
      <stop offset="1" stop-color="#D1DCFF" stop-opacity="0"/>
    </linearGradient>
    <linearGradient id="linear-gradient-2" x1="540" y1="0" x2="540" xlink:href="#linear-gradient"/>
  </defs>
  <g class="cls-6">
    <g>
      <path class="cls-2" d="M4863.097,4276.8475c-354.15,0-703.459-93.5969-1010.1639-270.6688L842.1911,2267.9224c-306.7049-177.076-562.4181-432.7861-739.4931-739.492C-74.377,1221.7244-167.976,872.4175-167.976,518.2654v-3476.5044c0-354.1521,93.599-703.459,270.674-1010.165,177.075-306.7018,432.7882-562.416,739.4931-739.492l3010.7389-1738.2522c306.7049-177.076,656.014-270.673,1010.1671-270.673s703.4622,93.5969,1010.1671,270.673l3010.7378,1738.2522c306.7059,177.076,562.416,432.7902,739.4941,739.492,177.076,306.7059,270.673,656.0129,270.673,1010.165V518.2654c0,354.1521-93.5969,703.459-270.673,1010.165-177.0781,306.7059-432.7882,562.416-739.4941,739.492l-3010.7378,1738.2522c-306.708,177.076-656.0171,270.673-1010.1671,270.673ZM4863.097-5653.5678c-165.5456,0-331.0912,42.626-478.7407,127.8696l-3010.742,1738.2522c-295.299,170.4955-478.7438,488.2243-478.7438,829.2071V518.2654c0,340.9827,183.4448,658.7157,478.7438,829.2071l3010.7389,1738.2522c295.3011,170.4914,662.1907,170.4914,957.4897,0l3010.7358-1738.2522c295.299-170.4914,478.7438-488.2243,478.7438-829.2071v-3476.5044c0-340.9827-183.4448-658.7116-478.7438-829.2071l-3010.7378-1738.2522c-147.6505-85.2436-313.1972-127.8696-478.7438-127.8696Z"/>
      <path class="cls-2" d="M2878.1659,3229.184c-354.5309,0-704.2126-93.6966-1011.2476-270.9636L-1216.0121,1178.2889c-307.0318-177.267-563.019-433.2511-740.285-740.285-177.2644-307.0298-270.9625-656.7146-270.9625-1011.2444v-3559.8672c0-354.5299,93.6981-704.2105,270.9625-1011.2486,177.266-307.0298,433.2532-563.018,740.285-740.2809l3082.9325-1779.9315c307.0329-177.267,656.7146-270.9636,1011.2455-270.9636s704.2157,93.6966,1011.2476,270.9636l3082.9325,1779.9315c307.0318,177.2629,563.0201,433.2511,740.2829,740.285,177.267,307.0339,270.9615,656.7146,270.9615,1011.2444V-573.2406c0,354.5299-93.6945,704.2147-270.9615,1011.2444-177.2629,307.0339-433.2511,563.018-740.2829,740.285l-3082.9325,1779.9315c-307.0318,177.267-656.7166,270.9636-1011.2476,270.9636ZM2878.1648-6872.2749c-165.9203,0-331.8385,42.7173-479.8212,128.156l-3082.9325,1779.9315c-295.9654,170.8775-479.8243,489.3287-479.8243,831.0795V-573.2406c0,341.7508,183.8589,660.202,479.8243,831.0795l3082.9325,1779.9315c295.9654,170.8775,663.6812,170.8775,959.6466,0L6440.9227,257.8389c295.9654-170.8775,479.8212-489.3287,479.8212-831.0795v-3559.8672c0-341.7508-183.8558-660.202-479.8212-831.0795l-3082.9325-1779.9274c-147.9827-85.4429-313.9051-128.1602-479.8254-128.1602Z"/>
    </g>
  </g>
  <g class="cls-5">
    <g>
      <path class="cls-2" d="M4839.7354,6024.0315c-354.15,0-703.459-35.6432-1010.1639-103.0751l-3010.742-661.9566c-306.7049-67.4335-562.4181-164.8121-739.4931-281.6107-177.075-116.7987-270.674-249.8205-270.674-384.6874v-1323.9099c0-134.8669,93.599-267.8888,270.674-384.6874,177.075-116.7971,432.7882-214.1772,739.4931-281.6107l3010.7389-661.955c306.7049-67.4335,656.014-103.0767,1010.1671-103.0767s703.4622,35.6432,1010.1671,103.0767l3010.7378,661.955c306.7059,67.4335,562.416,164.8136,739.4941,281.6107,177.076,116.7987,270.673,249.8205,270.673,384.6874v1323.9099c0,134.8669-93.5969,267.8888-270.673,384.6874-177.0781,116.7987-432.7882,214.1772-739.4941,281.6107l-3010.7378,661.955c-306.708,67.4335-656.0171,103.0767-1010.1671,103.0767ZM4839.7354,2242.3663c-165.5456,0-331.0912,16.2327-478.7407,48.6948l-3010.742,661.955c-295.299,64.9275-478.7438,185.9238-478.7438,315.7757v1323.9099c0,129.8518,183.4448,250.8498,478.7438,315.7757l3010.7389,661.955c295.3011,64.9259,662.1907,64.9259,957.4897,0l3010.7358-661.955c295.299-64.9259,478.7438-185.9238,478.7438-315.7757v-1323.9099c0-129.8518-183.4448-250.8482-478.7438-315.7757l-3010.7378-661.955c-147.6505-32.4622-313.1972-48.6948-478.7438-48.6948Z"/>
      <path class="cls-2" d="M2854.8042,5625.064c-354.5309,0-704.2126-35.6812-1011.2476-103.1874l-3082.9304-677.8272c-307.0318-67.5062-563.019-164.9891-740.285-281.9127-177.2644-116.922-270.9625-250.0877-270.9625-385.0985v-1355.6559c0-135.0108,93.6981-268.1749,270.9625-385.1001,177.266-116.922,433.2532-214.4065,740.285-281.9111l3082.9325-677.8272c307.0329-67.5062,656.7146-103.1874,1011.2455-103.1874s704.2157,35.6812,1011.2476,103.1874l3082.9325,677.8272c307.0318,67.5046,563.0201,164.9891,740.2829,281.9127,177.267,116.9236,270.9615,250.0877,270.9615,385.0985v1355.6559c0,135.0108-93.6945,268.1765-270.9615,385.0985-177.2629,116.9236-433.2511,214.4065-740.2829,281.9127l-3082.9325,677.8272c-307.0318,67.5062-656.7166,103.1874-1011.2476,103.1874ZM2854.8032,1778.2626c-165.9203,0-331.8385,16.2674-479.8212,48.8039l-3082.9325,677.8272c-295.9654,65.0729-479.8243,186.3444-479.8243,316.4887v1355.6559c0,130.1443,183.8589,251.4158,479.8243,316.4887l3082.9325,677.8272c295.9654,65.0729,663.6812,65.0729,959.6466,0l3082.9325-677.8272c295.9654-65.0729,479.8212-186.3444,479.8212-316.4887v-1355.6559c0-130.1443-183.8558-251.4158-479.8212-316.4887l-3082.9325-677.8256c-147.9827-32.5381-313.9051-48.8055-479.8254-48.8055Z"/>
    </g>
  </g>
  <g>
    <path class="cls-4" d="M849.542,1033.108c-74.8777,129.6931-114.4568,277.4002-114.4568,427.1563v459.7356h344.9148V774.4617c-93.3613,69.387-172.0332,157.452-230.458,258.6464Z"/>
    <path class="cls-3" d="M313.7339,1920v-956.5383c0-144.512,77.7461-279.1717,202.8975-351.4286l563.3687-325.261V0h-402.1609l-385.9243,222.8135C173.8074,291.0021,73.5718,386.7462,0,501.2202v1418.7798h313.7339Z"/>
  </g>
</svg>
