<?xml version="1.0" encoding="UTF-8"?>
<svg id="Layer_5" data-name="Layer 5" xmlns="http://www.w3.org/2000/svg" xmlns:xlink="http://www.w3.org/1999/xlink" viewBox="0 0 1186.5822 1282.1206">
  <defs>
    <style>
      .cls-1 {
        fill: none;
      }

      .cls-2 {
        fill: #eef2ff;
      }

      .cls-3 {
        fill: #1d2e86;
      }

      .cls-4 {
        clip-path: url(#clippath-1);
      }

      .cls-5 {
        fill: #fff;
      }
    </style>
    <clipPath id="clippath">
      <rect class="cls-1" x="-935.344" y="-9283.7774" width="3840" height="2160"/>
    </clipPath>
    <clipPath id="clippath-1">
      <rect class="cls-1" x="-958.7057" y="-1749.5861" width="3840" height="822.5635"/>
    </clipPath>
  </defs>
  <g class="cls-4">
    <path class="cls-2" d="M4283.0575,1410.629c-354.5309,0-704.2126-35.6812-1011.2476-103.1874L188.8795,629.6145c-307.0318-67.5062-563.019-164.9891-740.285-281.9127-177.2644-116.922-270.9625-250.0877-270.9625-385.0985v-1355.6559c0-135.0108,93.6981-268.1749,270.9625-385.1001,177.266-116.922,433.2532-214.4065,740.285-281.9111l3082.9325-677.8272c307.0329-67.5062,656.7146-103.1874,1011.2455-103.1874s704.2157,35.6812,1011.2476,103.1874l3082.9325,677.8272c307.0318,67.5046,563.0201,164.9891,740.2829,281.9127,177.267,116.9236,270.9615,250.0877,270.9615,385.0985V-37.3967c0,135.0108-93.6945,268.1765-270.9615,385.0985-177.2629,116.9236-433.2511,214.4065-740.2829,281.9127l-3082.9325,677.8272c-307.0318,67.5062-656.7166,103.1874-1011.2476,103.1874ZM4283.0565-2436.1724c-165.9203,0-331.8385,16.2674-479.8212,48.8039L720.3027-1709.5413c-295.9654,65.0729-479.8243,186.3444-479.8243,316.4887V-37.3967c0,130.1443,183.8589,251.4158,479.8243,316.4887l3082.9325,677.8272c295.9654,65.0729,663.6812,65.0729,959.6466,0l3082.9325-677.8272c295.9654-65.0729,479.8212-186.3444,479.8212-316.4887v-1355.6559c0-130.1443-183.8558-251.4158-479.8212-316.4887l-3082.9325-677.8256c-147.9827-32.5381-313.9051-48.8055-479.8254-48.8055Z"/>
  </g>
  <g>
    <path class="cls-3" d="M758.7472,722.7723l-.4299-164.2886c-.0215-8.2039-4.418-15.7732-11.5336-19.8565l-142.493-81.772c-7.1155-4.0834-15.869-4.0605-22.963.0601l-142.0632,82.5166c-7.0941,4.1205-11.451,11.7127-11.4295,19.9166l.4299,164.2886c.0215,8.2039,4.418,15.7732,11.5336,19.8565l142.493,81.772c7.1155,4.0834,15.869,4.0605,22.963-.0601l142.0632-82.5166c7.0941-4.1205,11.451-11.7127,11.4295-19.9166Z"/>
    <g>
      <polygon class="cls-5" points="655.984 664.7035 703.621 692.0389 703.312 573.9505 600.8893 515.1719 601.039 572.3852 655.8247 603.8264 655.984 664.7035"/>
      <polygon class="cls-5" points="536.7074 679.8895 491.1929 706.3248 593.6157 765.1034 695.7294 705.7896 650.0782 679.5928 593.4779 712.4674 536.7074 679.8895"/>
      <polygon class="cls-5" points="585.184 572.4267 585.0343 515.2134 482.9205 574.5271 483.2295 692.6156 530.7248 665.0312 530.5655 604.1541 585.184 572.4267"/>
    </g>
  </g>
</svg>